<?xml version="1.0" encoding="UTF-8" standalone="no"?>
<!DOCTYPE svg PUBLIC "-//W3C//DTD SVG 1.1//EN" "http://www.w3.org/Graphics/SVG/1.1/DTD/svg11-flat.dtd"
[

]>
<svg xmlns="http://www.w3.org/2000/svg"  viewBox="-0.152077 -0.152077 12.4703 9.88983"><g fill="none" stroke="black" stroke-width="0.00152077" transform="translate(0,9.58568) scale(1, -1)">
<g id="egypt" >
<path d="M 10.2225,7.50133 l -0.28086,-0.40191 -0.21519,-0.75543 -0.27204,-0.52069 -0.23315,-0.1746 -0.33325,0.32266 -0.45135,0.44629 -0.71353,1.43343 -0.10277,-0.09065 0.41436,-1.0552 0.61394,-1.00534 0.75579,-1.55762 0.36932,-0.54371 0.3212,-0.56481 0.89734,-1.10704 -0.19869,-0.17434 0.03226,-0.64993 1.16471,-0.89759 0.17554,-0.20485 -3.96623,0 -3.88,0 -4.02,0 0,3.6825 0,3.55615 -0.29993,0.805535 0.25755,0.61741 -0.15475,0.42769 0.36195,0.47986 1.33051,0.01653 0.96229,-0.26442 0.99286,-0.29549 0.46305,-0.15572 0.76989,0.31681 0.41161,0.28654 0.8819,0.08246 0.71103,-0.12626 0.27245,-0.496 0.23206,0.32674 0.80145,-0.23627 0.77948,-0.05661 0.49204,0.2519 0.65716,-1.71803 z "/>
</g></g></svg>