<?xml version="1.0" encoding="UTF-8" standalone="no"?>
<!DOCTYPE svg PUBLIC "-//W3C//DTD SVG 1.1//EN" "http://www.w3.org/Graphics/SVG/1.1/DTD/svg11-flat.dtd"
[

]>
<svg xmlns="http://www.w3.org/2000/svg"  viewBox="-0.198068 -0.198068 16.2415 13.9527"><g fill="none" stroke="black" stroke-width="0.00198068" transform="translate(0,13.5565) scale(1, -1)">
<g id="libya" >
<path d="M 5.53189,3.28248 l -0.707429,-0.371661 -0.562446,0.549217 -1.58192,0.431162 -0.438836,0.626241 -0.789306,0.464623 -0.467517,-0.183219 -0.355586,0.55764 -0.0375688,0.428501 -0.591282,0.72887 0.396875,0.417881 -0.0872298,0.628747 0.127072,0.547305 -0.0722437,0.455915 0.176113,0.815816 -0.0543636,0.464649 -0.323494,0.882918 0.487877,0.231769 0.086558,0.422507 -0.10635,0.414238 0.686676,0.385351 0.307888,0.320394 0.487464,0.287088 0.056534,0.768093 1.17452,-0.344216 0.41995,0.08604 0.83542,-0.16686 1.32695,-0.44688 0.46831,-0.88882 0.89768,-0.19408 1.40947,-0.41861 1.06532,-0.49718 0.48763,0.25943 0.47931,0.45994 -0.23302,0.76603 0.31364,0.48641 0.72055,0.4686 0.68846,0.1364 1.35278,-0.20462 0.34104,-0.44709 0.37233,-0.00423 0.31837,-0.17059 0.99364,-0.11731 0.24368,-0.33021 -0.36195,-0.47986 0.15475,-0.42769 -0.25755,-0.61741 0.29993,-0.805535 0,-3.55615 0,-3.6825 0,-1.99696 -1.15,-0.00304 -0.01234,-0.41953 -3.9884,1.91462 -3.98841,1.91463 -1.00955,-0.54677 z "/>
</g></g></svg>