<?xml version="1.0" encoding="UTF-8" standalone="no"?>
<!DOCTYPE svg PUBLIC "-//W3C//DTD SVG 1.1//EN" "http://www.w3.org/Graphics/SVG/1.1/DTD/svg11-flat.dtd"
[

]>
<svg xmlns="http://www.w3.org/2000/svg"  viewBox="-0.0495538 -0.0495538 4.06341 7.14155"><g fill="none" stroke="black" stroke-width="0.000495538" transform="translate(0,7.04244) scale(1, -1)">
<g id="tunisia" >
<path d="M 1.95766,0 l -0.426537,1.79514 -0.6165,0.403593 -0.00862996,0.242052 -0.817831,0.595778 -0.08816,0.753262 0.6165,0.55777 0.235386,0.82473 -0.158543,0.953301 0.20314,0.51325 1.08903,0.403567 0.700009,-0.119993 -0.0293522,-0.505964 0.848217,0.368065 0.0711584,-0.192107 -0.500021,-0.489996 -0.00671794,-0.462556 0.346232,-0.24846 -0.131672,-0.865477 -0.658254,-0.502734 0.190066,-0.545031 0.517178,-0.0170015 0.251664,-0.475397 0.380287,-0.156347 -0.056534,-0.768093 -0.487464,-0.287088 -0.307888,-0.320394 -0.686676,-0.385351 0.10635,-0.414238 -0.086558,-0.422507 -0.487877,-0.231769 z "/>
</g></g></svg>