<?xml version="1.0" encoding="UTF-8" standalone="no"?>
<!DOCTYPE svg PUBLIC "-//W3C//DTD SVG 1.1//EN" "http://www.w3.org/Graphics/SVG/1.1/DTD/svg11-flat.dtd"
[

]>
<svg xmlns="http://www.w3.org/2000/svg"  viewBox="-0.152635 -0.152635 12.5161 9.96738"><g fill="none" stroke="black" stroke-width="0.00152635" transform="translate(0,9.66211) scale(1, -1)">
<g id="egypt" >
<path d="M 0.613751,9.51217 l 0.0206706,-0.000122071 0.0457357,0.00585937 0.00960286,-0.00256348 0.011556,-0.00459798 0.012207,-0.00195312 0.0183105,0.0090332 0.0246582,0.00545247 0.0290527,0.00284831 0.162598,0.0402018 0.187581,0.0542399 0.0447591,0.00598145 0.0979818,-0.00431315 0.395345,-0.0946859 0.288493,-0.0331624 0.0166016,-0.0078125 0.0158691,-0.00472005 0.0498047,0.00301107 0.0202637,-0.00174968 0.0715332,-0.0296631 0.0410156,-0.0109863 0.0458984,-0.000325521 0.0362956,0.0117188 0.0175781,0.00142415 0.0170898,-0.00972494 0.0138346,-0.0112305 0.0100911,-0.00366211 0.00927734,-0.000569662 0.0112305,-0.00219726 0.0273437,-0.0136312 0.0629883,-0.0181885 0.0677083,-0.00610352 0.0249023,-0.00622559 0.016276,-0.0104574 0.0061849,0.00459798 0.00960286,0.00508626 0.00406901,0.00394694 0.0118815,-0.00126139 0.0626628,0.000976562 0.00683594,-0.00179036 0.00732422,-0.00406901 0.00748698,-0.00691732 -0.000325521,-0.00358073 -0.00187174,-0.00366211 0.00219727,-0.0069987 0.00748698,-0.0126953 0.00455729,-0.00553386 0.00504557,-0.00227864 0.00292969,-0.00297038 0.00146484,-0.0150146 0.00268555,-0.00585938 0.00708008,-0.0112305 0.00992839,-0.0299072 0.0100911,-0.0137939 0.0239258,-0.0174967 0.0288086,-0.0139974 0.0317383,-0.00927734 0.0625,-0.00817871 0.0249023,-0.00878906 0.0222982,-0.00386556 0.0221354,0.0100911 0.0504557,-0.0229492 0.0591634,0.0090332 0.116211,0.0486654 0.0171712,0.00236003 0.0104167,-0.00675456 0.00520833,-0.0141602 0.00138346,-0.0196126 0.00284831,-0.00817871 0.0175781,-0.0361735 0.00398763,-0.0327962 0.00284831,-0.0082194 0.0297852,-0.0153809 0.0481771,-0.00594076 0.179443,0.000244141 0.0117187,-0.00256348 0.0090332,-0.00585937 0.00797526,-0.0065918 0.00813802,-0.00488281 0.0124512,-0.00292969 0.0297038,0.00292969 0.0227865,-0.00215658 0.0427246,-0.00931803 0.0192871,-0.00215657 0.0202637,0.00431315 0.043457,0.0186361 0.0228678,0.00374349 0.0193685,-0.00305176 0.0179036,-0.00703939 0.0155436,-0.00956217 0.0119629,-0.0107829 0.00878906,-0.00423177 0.0356445,0.000488282 0.0134277,-0.00219727 0.0106608,-0.00358073 0.0167643,-0.0078125 0.177653,-0.0546468 0.0355632,-0.0173747 0.0195313,-0.00703939 0.0242513,-0.002889 0.00602213,-0.00561523 0.00691732,-0.0266927 0.00390625,-0.00927734 0.00683594,-0.00439453 0.0186361,-0.00484212 0.173747,-0.0788981 0.161133,0.0061849 0.0297038,0.00480143 0.1368,0.0570475 0.147542,0.0616048 0.0530599,0.0342204 0.041748,0.0185954 0.00569662,0.00252279 0.00724284,0.0098877 0.00764974,0.00736491 0.147298,0.0922852 0.0155436,0.0263672 0.027832,-0.00561523 0.0290527,0.0118001 0.046224,0.0354004 -0.00895182,0.0113525 -0.00382487,-0.000732422 -0.00830078,-0.00378418 0.00561523,0.0101318 0.0078125,0.00708008 0.0078125,0.00020345 0.00610352,-0.0105794 0.00732422,0 0.0114746,0.0109049 0.0465495,0.0359701 0.0137533,0.00773112 0.0131836,0.00545247 0.0199382,0.0238444 0.00813802,0.00545247 0.0138346,0.00231934 0.00789388,0.00549316 0.0065918,0.00675456 0.00952148,0.00594076 -0.00317383,0.00109863 -0.00268555,0 -0.00154622,0.00134277 0.000569661,0.00500488 0.0273437,0.0129801 -0.00292969,-0.0286051 0.0282389,-0.0192871 0.00358073,-0.000935872 0.0375163,-0.00980632 0.0366211,-0.00341797 -0.0082194,-0.00443522 -0.0113118,-0.0111491 -0.00838216,-0.00423177 -0.000651041,-0.00504557 0.00146484,-0.00146484 0.00309245,-4.069e-005 0.00349935,-0.000935872 -0.0119629,-0.00687663 0.00358073,-0.00777181 0.0109049,-0.00732422 0.0105794,-0.00537109 0.0415853,0.0211589 -0.00512695,-0.0114339 0.00553385,-0.00561523 0.0086263,-0.00150553 0.00463867,0.000813803 0.00390625,0.00667318 0.0301921,0.0247396 0.00276693,-0.00480143 0.000732422,-0.000406901 0.00333659,-0.00227865 0.00244141,0.005778 0.00211589,0.00333659 0.00179036,0.00406901 0.00105794,0.00797526 0.00626628,0 -0.000488281,-0.0107422 0.0020345,-0.00813802 0.00480143,-0.00549316 0.00732422,-0.00297038 0.00398763,0.00663249 0.0102539,0.0268555 -0.0153809,0.00679525 -0.0141602,-0.00292969 -0.0148112,-0.00642904 -0.0177409,-0.00358073 0,0.00614421 0.00309245,0.000488281 0.00732422,-0.000854492 0.00325521,0.000366211 0,0.00683594 -0.0161133,-0.00427246 -0.0590007,-0.00256348 0,0.00683594 0.0371094,0.00817871 0.0351563,0.0169678 0.0611165,0.0471598 0.0216471,0.0304362 0.013916,0.0403239 0.00398763,0.0418701 -0.00846354,0.03479 0.00683594,0 0.00496419,-0.019165 0.00887044,-0.0187174 0.0138346,-0.0134277 0.0201823,-0.00333659 -0.0279948,0.0182699 -0.0148926,0.0295003 0.00642904,0.0176188 0.0364583,-0.0175781 0.0270182,-0.0175374 0.0307617,-0.0109049 0.0361328,-0.00349935 0.0432943,0.00463867 0.140706,0.0323079 0.297363,0.0905762 0,-0.00683594 -0.0151367,-0.00183105 -0.0923665,-0.0297852 -0.0773112,-0.0379639 -0.0529785,-0.0216064 -0.0427246,-0.0248617 -0.00561523,-0.00223795 -0.0136719,-0.00195313 -0.00805664,-0.00264486 -0.0379232,-0.0227051 -0.0174154,-0.00516764 -0.0397135,-0.00256348 -0.0086263,-0.00431315 -0.00447591,-8.138e-005 -0.0152181,-0.0197754 0,-0.00744629 0.0205892,-0.00476074 0.00708008,-0.000122071 0.00634766,0.00488281 0.00683594,0 0.0151367,-0.00760905 0.0280762,0.00130208 0.0270996,0.00716146 0.012207,0.00968424 0.0090332,0.0160726 0.0200195,-0.00467936 0.0209147,-0.0148112 0.011556,-0.0139567 0.00683594,0 0.00634766,0.0173747 0.0154622,0.0174967 0.0184733,0.0138346 0.0148926,0.00651042 0.00895182,0.00313314 0.0110677,-0.00439453 0.0130208,-0.00736491 0.0148112,-0.00557454 0.0094401,0.00101725 0.0128581,0.00317383 0.0139974,0.00118001 0.0120443,-0.00537109 -0.00309245,-0.00101725 -0.00276693,4.069e-005 -0.00146484,-0.00118001 0.000488281,-0.00472005 0.0135091,-0.00317383 0.0170085,0.00472005 0.0170085,0.00923665 0.013265,0.0102946 -0.00244141,0.00105794 -0.00244141,-0.00016276 -0.00154622,0.000895182 0.000325521,0.00447591 0.00341797,0.00211588 0.000488281,0.000895183 0.00016276,0.00118001 0.00203451,0.00321452 0.0342611,-0.0129395 0.00675456,-0.00756836 0.00927734,0.00675456 0.00691732,0.00785319 0.0111491,0.020223 -0.00585938,0.00830078 0.00349935,0.0065918 0.0160319,0.0117594 0.00292969,0.00606283 -0.00105794,0.00512695 -0.000325521,0.00463867 0.00585937,0.00467936 0.005778,0.00118001 0.036377,-0.00236003 0.0094401,-0.00309245 0.0166829,-0.00939941 0.00268555,-0.00378418 -0.000325521,-0.00463867 0.00179037,-0.00390625 0.00952148,-0.00134277 0.00805664,0.00195313 0.00610352,0.00467936 0.00398763,0.00667318 -0.0181478,0.0078125 0.00642904,0.00374349 0.00602214,0.00187174 0.00683594,-0.000895183 -0.0192871,0.0227458 -0.0402832,0.0256348 -0.0476074,0.0176188 -0.045166,0.00130208 0.00952148,0.00463867 0.024821,0.00797526 0.0850423,0.0109863 0.03125,-0.00297038 0.0922852,-0.0250244 0.128988,-0.0502523 0.0286458,-0.0111491 0.0410156,-0.0273437 0.104085,-0.0415039 0.0331217,-0.00630697 0.0148112,0.000406901 0.0257975,0.000732422 0.150879,0.0371094 0.0895996,0.0437419 0.0364583,0.0102539 0.0385742,-0.000691732 0.031901,-0.0139567 0.0143229,-0.0266113 0.00504557,-0.0119222 0.0315755,-0.0366618 0.013265,-0.0285645 0.0158691,-0.0171305 0.0320638,-0.0249023 0.0105794,-0.00406901 0.0244141,-0.00467936 0.00179036,-0.000732422 0.010498,-0.00419108 0.0249023,-0.0240885 0.00610352,-0.00390625 0.0144043,-0.00569662 0.0397949,-0.0270182 0.0100911,-0.00569661 -0.030599,0.00565592 -0.098877,0.0532633 0.00561523,-0.000488281 0.00439453,0.000488281 0.00268555,-0.0012207 0.0078125,-0.00561523 -0.00244141,0.00728353 -0.00463867,0.00439453 -0.0069987,0.0020752 -0.0205078,0.00195312 -0.00455729,0.00358073 -0.00260417,0.00455729 -0.00488281,0.00415039 -0.0266113,0.0123698 -0.0107422,0.0078125 -0.00415039,-0.000366211 -0.00748698,0 -0.00301107,0.0135498 -0.00626628,0.0118408 -0.00813802,0.00952148 -0.00927734,0.00663249 0.0130208,0 0.012207,0.00130208 -0.0503743,0.053833 -0.0107422,0.0161133 -0.0144043,0.0162354 -0.0113932,0.00561523 -0.000325521,-0.00427246 -0.0167643,0.00671387 -0.00651042,-0.00354004 -0.00406901,-0.0100098 -0.0136719,0.00683594 -0.000244141,-0.00321452 0.000732422,-0.00679525 -0.000488281,-0.00305176 -0.00358073,0.0020752 -0.00691732,0.00215657 -0.00382487,0.00199381 0.000406901,-0.00785319 -0.00187174,-0.00557454 -0.00472005,-0.00708008 0.0205078,0 -0.00553385,-0.0111084 0.0152995,-0.0235596 -0.00292969,-0.0137126 0.00683594,0 0,-0.00626628 -0.00683594,0 0.00219727,-0.00443522 0.00317383,-0.00476074 0.00146484,-0.00500488 -0.00683594,0 -0.00341797,0.012207 -0.0065918,0.00923665 -0.0101725,0.00553385 -0.0139974,0.000895183 0.00374349,0.00748698 -0.00398763,0.000976562 -0.00724284,-0.00667318 -0.0061849,-0.0154622 0.0061849,-0.000773112 0.00333659,0.0012207 0.00415039,0.00581869 0.00708008,-0.00480143 0.00561523,-0.00187174 0.0078125,0.000406901 0,-0.00683594 -0.00748698,0 0,-0.00736491 0.00390625,-0.00598145 0.005778,-0.00415039 0.0078125,-0.00244141 0.010498,-0.000488281 -0.00708008,-0.00626628 -0.0101725,-0.00219727 -0.00992839,0.00203451 -0.0069987,0.00642904 -0.00683594,0 0.000651042,-0.00524902 -0.00187174,-0.00118001 -0.00301107,0.00016276 -0.00325521,-0.00118001 0.00455729,-0.002889 0.00358073,-0.00325521 0.0061849,-0.00752767 -0.0139974,-0.0151774 -0.00284831,-0.0114339 0.0090332,-0.00646973 0.0214844,-0.000406901 0,-0.00748698 -0.0133464,0.00219727 -0.0109049,0.00374349 -0.00911458,0.000732422 -0.00830078,-0.00667318 -0.0061849,0 -0.00667318,0.00606283 -0.00667318,-0.000528972 -0.00496419,-0.00594075 -0.00203451,-0.0101318 0.00406901,-0.00500488 0.0069987,-0.00358073 0.00146484,-0.00358073 -0.0125326,-0.00463867 0,-0.00614421 0.00569661,-0.00952148 -0.0069987,-0.00354004 -0.0113932,-0.00244141 -0.00846354,-0.00622559 -0.00211589,-0.0141195 0.00626628,-0.00878906 0.0109863,-0.0024821 0.0107422,0.00431315 0.00146484,0.000569661 -0.00195313,0.00174968 -0.00130208,0.000447591 -0.00130208,0.000976562 -0.0016276,0.00366211 0.0141602,-0.00512695 0.00683594,-0.00126139 0.00935872,-0.000447591 0.00805664,-0.00415039 0.0016276,-0.00923665 8.1381e-005,-0.00911458 0.00382487,-0.00415039 0.0112305,-0.00264486 0.015625,-0.0065918 0.014974,-0.00907389 0.00976562,-0.00968424 0.00764974,0.0163167 0.00520833,0.00671387 0.00764974,0.00496419 -0.00415039,-0.00927734 -0.00146484,-0.00626628 0.00138346,-0.00545247 0.00423177,-0.0069987 -0.0136719,0 0,-0.00683594 0.0136719,0 -0.00325521,-0.00219727 -0.00284831,-0.00154622 -0.00170898,-0.00313314 0.000976562,-0.00671387 0.00472005,0.000651042 0.00276693,0.00179036 0.00227865,0.00244141 0.00374349,0.00256348 0.00130208,-0.00166829 -0.000325521,-0.0024821 0.00113932,-0.00223795 0.00472005,-0.00105794 0,0.00744629 0.00683594,0 -0.00496419,-0.0141602 0.00480143,-0.00948079 0.00830078,0.000569661 0.00553385,0.015625 0.0116374,0.00138346 0.015625,0.0142415 0.019043,0.0114746 0.0227051,-0.00667318 -0.0143229,0 0,-0.00683594 0.0143229,-0.00614421 0.00268555,0.00415039 0.00626628,0.00427246 0.00455729,0.00455729 0.0143229,-0.00683594 0,-0.00614421 -0.00415039,-0.00443522 -0.00170898,-0.00333659 -0.0016276,-0.0133464 0.0111491,0.00439453 0.00317383,0.00244141 -0.0016276,-0.00842285 -0.00195312,-0.00561523 -0.00358073,-0.0037028 -0.00716146,-0.00276693 0,-0.00622559 0.00675456,-0.00854492 0.000488281,-0.0107829 -0.020752,-0.0153809 0,-0.00683594 0.0107422,-0.000406901 0.00830078,0.00203451 0.00585937,0.00455729 0.00292969,0.00748698 0.0061849,0 0.00130208,-0.0105794 0.000895182,-0.00240072 0.00219727,-0.00577799 0.00602214,-0.00561523 0.00952148,-0.00297038 0,-0.00748698 -0.0101725,-0.00227865 -0.00732422,-0.00386556 -0.00496419,-0.00590007 -0.00366211,-0.00838216 0.00504557,-0.00195313 0.00797526,-0.00488281 0.00960286,0.00528971 0.00895182,0.00142415 0.0082194,-0.00195312 0.00683594,-0.00476074 0,-0.00622559 -0.00683594,0 0,-0.00744629 0.0100098,-0.00744629 0.0126953,-0.00516764 0.0133464,-0.000447591 0.0122884,0.00687663 0,0.0061849 -0.0146484,0.000325521 -0.0100098,0.00651042 -0.0061849,0.00992839 -0.00325521,0.0105794 0.014974,-0.00276693 0.0201823,-0.00882975 0.0094401,-0.00146484 0.00374349,-0.000610351 -0.00797526,0.0136719 0.0159505,0.000488281 0.00512695,-0.000488281 0,0.00744629 -0.00447591,0.000976562 -0.000895183,0.000773112 0.000244141,0.00146484 -0.00146484,0.00260417 0.00146484,0.00113932 0.0119629,0.00667318 0.000569661,-0.00606283 0.00284831,-0.0012207 0.00447591,0.000447591 0.005778,-0.000651041 -0.00390625,0.0109049 0.0078125,0.00712077 0.0109863,0.000854492 0.0109049,-0.0166016 0.0127767,-0.00398763 0.015625,-0.000325521 0.0140788,0.00203451 0.0240072,0.0119629 0.0112305,0.0176595 -0.00292969,0.0184326 -0.0180664,0.0146484 0.0240072,0.000732422 0.000895183,-0.000203451 0.00244141,-0.000528971 0.00496419,0.0297445 0.000325521,0.0139974 -0.00528971,0.0170898 -0.0168457,0.0183919 -0.00244141,0.00870768 0.0124512,0.00773112 -0.0150553,0.00736491 -0.0211589,0.0065918 -0.0204264,0.00280762 -0.012207,-0.00378418 -0.00708008,0.016805 0.0124512,-0.00130208 0.0131836,-0.000895182 0.0239258,-0.00406901 0.0438639,-0.00736491 0.0133464,-0.00874837 0.00626628,0 0.0113118,-0.00126139 0.00244141,-0.0167236 0.0104167,-0.0128174 0.0148926,-0.00842285 0.0307617,-0.00695801 0.0114746,-0.00939941 0.0187988,-0.020752 0.0424805,-0.035319 0.0185547,-0.0121663 0.0283203,-0.0419515 0.0262858,-0.0203044 0.0298665,-0.0160726 0.0340169,-0.0090332 0.00187174,-0.000528971 0.0439453,-0.00118001 0.0419922,0.00463867 0.0744629,0.0167643 0.0887858,0.0375977 0.0172526,0.0114746 0.0411784,0.0179036 0.0112305,0.00724284 0.00683594,0 0,-0.00748698 -0.031901,-0.0105387 -0.0557454,-0.0361735 -0.0324707,-0.00789388 -0.0546875,-0.0219727 -0.0859375,-0.019043 0.0485026,0 0,-0.00675456 -0.0143229,-0.00683594 0.030599,4.069e-005 0.011556,0.00386556 0.00634766,0.00968425 0.0061849,0 0.000813802,-0.005778 0.00325521,-0.000935872 0.00439453,0.000732421 0.00569662,-0.000773112 0.0615234,0.0340983 0.0517578,0.013916 0.0102539,0.00720215 0.0061849,0 0.00423177,-0.0053304 0.0142415,-0.00321452 -0.00333659,-0.0049235 -0.00764974,-0.000813802 0,-0.00683594 0.010498,0.00317383 0.0236816,0.010498 0,0.00744629 -0.0273438,0 0,0.00614421 0.0135091,0.00488281 0.0169271,-0.00390625 0.0154622,-0.0094401 0.00927734,-0.0119629 0.00244141,-0.00561523 0.00211589,-0.00984701 0.00179036,-0.00504557 -0.0138346,0 0.0332031,-0.0104167 0.0154622,0.000732422 0.0135091,0.00968424 0,0.00744629 -0.00952148,0.00476074 -0.00480143,0.00146484 0,0.00683594 0.038737,0.0086263 0.00960286,0.00565592 -0.00496419,0.00752767 0.00219727,0.00724284 0.00537109,0.00838216 0.00423177,0.0109863 -0.00683594,0 -0.00642904,-0.00679525 -0.020752,-0.0137126 -0.00317383,-0.00366211 -0.00333659,-0.00301107 0,-0.00309245 0.00651042,-0.00386556 -0.0133464,-0.00264486 -0.0227865,0.000325521 -0.0236003,0.00301107 -0.0161133,0.00545247 0.0301921,0.00260417 0.0171712,0.0152995 0.0126139,0.0201416 0.0158691,0.0172119 0.0120443,0.00504557 0.0247396,0.00374349 0.011556,0.00488281 0.0192057,0.0157064 0.011556,0.00488281 0.0170898,-8.1381e-005 0,-0.00683594 -0.027832,0 0,-0.00622559 0.0124512,-0.00793457 0.0358887,-0.040446 0.0107422,-0.0170492 -0.00415039,-0.00549316 -0.0126139,-0.00276693 -0.0144857,-0.00882975 -0.0012207,0.0024821 0,0.00264486 -0.0012207,0.00166829 -0.00504557,-0.000651041 0,-0.00614421 0.0167643,-0.0100098 0.00895182,-0.0128988 -0.000406901,-0.0152995 -0.0109863,-0.0170085 0.0358073,0.0124512 0.0185547,0.00366211 0.013265,-0.00187174 0.00675456,0.0012207 0.00472005,-4.069e-005 0.0090332,-0.00118001 0,0.0061849 -0.0136719,0.00744629 -0.00683594,0 0,-0.00744629 -0.00610352,0 0,0.00744629 0.0530599,0.0178223 0.0145671,0.00952148 0.00732422,0 -0.00732422,-0.00744629 0.00732422,-0.00683594 0.0074056,0.00561523 0.0082194,0.000610351 0.00708008,-0.00427246 0.00406901,-0.00878906 0.0074056,0 0.000895182,0.00846354 -0.000325521,0.0100911 -0.00130208,0.00158691 0.0144043,0.000976563 -0.00952148,0.00435384 -0.00992839,-0.0012207 -0.0094401,0.000976562 -0.011556,0.00203451 0.109294,0.00748698 -0.00878906,0.0181478 0.0129395,0.00366211 0.0157878,0.00105794 0,0.0181478 0.0108236,-0.00463867 0.00341797,-0.00284831 0.00683594,0 0.0134277,0.00325521 0.0398763,-0.0179443 0.0187174,-0.00516764 0.072998,-0.00651042 0.0195313,-0.00716146 0,0.00687663 0.0227051,-0.00590007 0.0332031,0.00187175 0.20638,0.046224 0.192708,0.0657145 0.151449,0.0841064 0.0017725,0.000966817 0.0243388,-0.0385519 0.00578776,-0.0164848 0.0179549,-0.0477811 0.0102604,-0.0273048 0.0393774,-0.105368 0.0315226,-0.0842843 0.0383439,-0.0870748 0.050953,-0.116117 0.0615983,-0.140095 0.0218075,-0.07953 0.00217041,-0.0413411 0.00599447,-0.0170015 0.0159163,-0.0187585 0,-5.1677e-005 0.00992187,-0.0123507 -0.000206705,-0.0135909 -0.00950846,-0.029869 -0.001757,-0.01757 0.00217041,-0.0115238 0.00692464,-0.00940511 0.0545703,-0.0413928 0.0110588,-0.0143144 0.0331763,-0.0824756 0.0590145,-0.147485 0.0387573,-0.0963765 0.00279053,-0.00558105 0.001757,-0.00589111 0.000620118,-0.00599447 -0.000516765,-0.0061495 0.00630453,-0.0543119 0.0438216,-0.104541 0.0391707,-0.0939994 0.0257349,-0.102939 -0.00186035,-0.0691172 0.00702799,-0.0239262 0.022841,-0.0414187 0.008621,-0.0142407 -0.0113932,-0.00524902 -0.00846354,-0.00561523 -0.00716146,-0.00703939 -0.00716146,-0.00935872 -0.00553385,-0.0116781 -0.00325521,-0.0102946 -0.00561523,-0.00789388 -0.0127767,-0.00431315 0.00349935,-0.000895182 0.00284831,-8.138e-005 0.00154622,-0.00146484 -0.000488281,-0.00504557 -0.00854492,-0.00374349 -0.0065918,-0.00520833 -0.00244141,-0.005778 0.00390625,-0.00569661 -0.00952148,-0.00158691 -0.00439453,-0.00268555 0.000732422,-0.00386556 0.00634766,-0.0049235 -0.0116374,-0.00976563 -0.0230306,-0.031779 -0.00488281,-0.00423177 -0.0107422,-0.00500488 -0.00496419,-0.00378418 -0.00406901,-0.00598145 -0.00317383,-0.00590007 -0.00480143,-0.00537109 -0.00838216,-0.00455729 0,-0.00614421 0.00870768,-0.0137939 -0.00333659,-0.0143229 -0.0078125,-0.0138753 -0.00512695,-0.0126546 0,-0.0515544 -0.00537109,-0.0122477 -0.011556,-0.00923665 -0.0117188,-0.00708008 -0.00537109,-0.00585937 -0.00113932,-0.0140381 -0.00374349,-0.0159912 -0.00626628,-0.0154215 -0.00927734,-0.0125326 0.00244141,-0.0115967 -0.00244141,-0.0605062 0.00203451,-0.00960287 0.00992838,-0.0123698 0.00219727,-0.0120443 -0.00301107,-0.0117187 -0.00748698,-0.00553385 -0.00911458,-0.00297038 -0.0223796,-0.012736 -0.00349935,-0.00537109 -0.00292969,-0.013265 0.000651042,-0.00610352 0.00504557,-0.0203451 0.00113932,-0.0594889 -0.0266927,-0.0170085 0,-0.00626628 0.00292969,-0.0090332 0.00292969,-0.0135905 0,-0.0145671 -0.00585937,-0.0118001 0.00358073,-0.00354004 0.00325521,-0.0045166 0.0061849,-0.0118408 -0.00911458,-0.00537109 -0.00154622,-0.00549316 0.00219727,-0.00610352 0.00170898,-0.00724284 -0.00219726,-0.010498 -0.00463867,-0.00679525 -0.00463867,-0.00500488 -0.00219727,-0.00500488 -0.00537109,-0.0177002 -0.0234375,-0.0291341 -0.013916,-0.0461833 -0.0402018,-0.0534668 -0.0127767,-0.0285645 -0.000976562,-0.00264486 8.138e-005,-0.00252279 -0.00113932,-0.00154622 -0.00472005,0.000569661 0.0130208,-0.0306803 -0.0120443,-0.0195312 -0.0227865,-0.0150553 -0.0197754,-0.017334 0.00292969,-0.00211589 0.000895182,-0.000447591 0.00244141,-0.00488281 -0.0135905,-0.00590007 -0.0074056,-0.0131429 -0.0094401,-0.0444336 -0.00366211,-0.0109863 -0.0118001,-0.0167236 -0.00195313,-0.000651042 -0.00309245,-0.0113932 -0.0141602,-0.0246989 -0.00325521,-0.0120036 0.000976562,-0.0168457 0.00276693,-0.0130208 0.00439453,-0.0110677 0.00553385,-0.0109049 0,-0.00622559 -0.00764974,-0.016805 0.0082194,-0.014974 0.0131836,-0.0137533 0.00878906,-0.0161133 0.00935872,-0.00793457 0.00284831,-0.00549316 -8.1381e-005,-0.0074056 -0.00260417,-0.00423177 -0.00268555,-0.002889 -0.00138346,-0.00317383 -0.000813802,-0.0124919 -0.00912522,-0.0351227 -0.011886,-0.0280139 0.0172733,-0.028003 -0.0166071,-0.0704815 0.00748698,-0.00748698 -0.0260417,-0.00345866 -0.00813802,-0.00337728 -0.00325521,-0.00565593 -0.00309245,-0.00927734 -0.00439453,-0.00854492 -0.0130208,-0.00708008 -0.00610352,-0.0145264 -0.00830078,-0.0032959 -0.00756836,-0.000854492 -0.0138346,-0.00402832 -0.009847,-0.00134277 0.0020345,-0.00402832 0.000162761,-0.000976563 0.000976562,-0.000366211 0.00423177,-0.0020752 -0.00748698,-0.0151367 -0.0102539,-0.0302734 -0.00968424,-0.00923665 -0.00683594,0 -0.00317383,0.00528971 -0.00830078,0.00252279 -0.0065918,0.00455729 -0.00691732,-0.00606283 -0.00675456,-0.0221761 -0.00919596,-0.0113932 0.0082194,-0.0123291 -0.0126139,-0.0107422 -0.0196126,-0.00756836 -0.0134277,-0.002889 -0.00927734,0.000691732 -0.00268555,-0.000447591 0.00398763,-0.0157064 0.00309245,-0.00594076 0.0361328,-0.000325521 0,-0.0061849 -0.00748698,0 0,-0.00683594 0.00520833,-0.0041097 0.00341797,-0.00459798 0.00504557,-0.0117594 -0.00976563,0.00439453 -0.00390625,0.00240072 0.00138346,-0.00374349 0,-0.00183105 0.0012207,-0.000773112 0.00488281,-0.000447591 0,-0.00744629 -0.00748698,0 -0.00488281,0.00878906 -0.0174154,0.0208333 -0.019043,0.0177409 -0.00854492,0.00622559 -0.0101725,0.00459798 -0.014974,0.00447591 -0.0963542,0.00944011 -0.0240072,0.0138346 -0.0668945,0.0721436 -0.00512695,0.0032959 -0.0086263,-0.000732422 -0.0570475,0.0465088 -0.0127767,0.00606283 -0.0131022,0.000732422 -0.0114746,-0.00789388 -0.0138346,0.0266927 -0.00667318,-0.0061849 -0.0090332,0.00968425 -0.0347493,0.0262044 -0.0082194,0.00354004 -0.00268555,0.00146484 -0.00374349,0.00443522 -0.00358073,0.00854492 -0.00317383,0.0041097 -0.00691732,0.00484212 -0.00764974,0.00284831 -0.0157878,0.00317383 0.000569662,0.0250244 -0.0479329,0.0262451 -0.000488281,0.0176595 -0.0140788,0.0109049 -0.0170898,0.0205078 -0.0118001,0.0216471 0.00203451,0.0145671 -0.00480143,0.00317383 -0.00406901,0.00199381 -0.00325521,0.00305176 -0.00211589,0.00610352 -0.00626628,0 0,-0.00748698 -0.0074056,0 -0.00309245,0.0049235 -0.00878906,0.00899251 -0.00179036,0.00317383 -0.0148112,0.0488281 -0.00537109,0.00732422 -0.00716146,-0.00435384 -0.00773112,0.0134684 -0.0235189,0.0310059 -0.00968424,0.0163574 -0.130778,0.0692952 -0.00642904,0.010498 -0.00431315,0.00134277 -0.0230306,0.0362142 -0.0192871,0.0157878 -0.0118815,0.012085 0.000162761,0.00561523 -0.0639648,0.0417887 -0.0104167,0.00968424 -0.00447591,0.00748698 -0.00317383,0.00817871 -0.00830078,0.0124512 -0.0109863,0.0113525 -0.0116374,0.00524902 0.00626628,0.00744629 0,-0.00744629 0.00732422,0 -0.00683594,0.0329183 -0.0168457,0.00244141 -0.00846354,-0.013387 0.0185547,-0.0145264 -0.0167643,0.00500488 -0.0107422,0.0128174 -0.00553385,0.0184326 -0.00415039,0.0401611 -0.00642904,0.0170085 -0.0177409,0.0301107 0.00992839,0.0198975 0.0130208,0.0460205 0.010498,0.0228271 -0.0124512,0.0133057 -0.00569661,0.00789388 -0.00537109,0.0201009 -0.00724284,0.00484212 -0.00878906,0.00292969 -0.00773112,0.00557454 -0.00642904,0.0184733 -0.00317383,0.0444336 -0.00406901,0.0128174 0,0.00614421 0.00870768,0.00935872 0.00154622,0.0086263 -0.00398763,0.0230306 -0.00203451,0.00528971 -0.00390625,0.0144043 -0.00179036,0.014974 0.00472005,0.00691732 0.00732422,0.0065918 -0.00716146,0.0135091 -0.011556,0.011027 -0.00610351,-0.000732422 -0.00203451,0.0107829 -0.00602214,0.00756836 -0.00854492,0.002889 -0.0100098,-0.00321452 -0.0104167,0.0117187 -0.0270182,0.0128581 -0.0104167,0.00891113 -0.0124512,0.0251465 -0.00187175,0.00590007 -0.00309245,0.00545247 -0.0145671,0.0101725 -0.00341797,0.00484212 -0.00301107,0.00170898 -0.0167643,0.0225016 -0.00309245,0.00187174 -0.00830078,0.00333659 -0.00292969,0.00158691 -0.0016276,0.00292969 -0.00260417,0.00809733 -0.00195312,0.00268555 -0.0450846,0.0409749 -0.0157878,0.0045166 -0.0222982,0.0109049 -0.0211589,0.0135091 -0.0130208,0.0120443 -0.00545247,0.0157878 -0.00463867,0.0206299 -0.00716146,0.0179443 -0.0131022,0.00769043 -0.00927734,0.00321452 -0.0065918,0.00789388 -0.0202637,0.0428467 -0.00170899,0.000691732 0.00366211,0.0372721 -0.00382487,0.0170085 -0.0269368,0.0113932 -0.0487467,0.0305176 0.00764974,0 -0.00382487,0.00716146 -0.00431315,0.00362142 -0.00537109,0.00158691 -0.00716146,0.00130208 0.00244141,0.00223796 0.00268555,0.00199381 0.00170898,0.00341797 -0.000651041,0.00655111 -0.0061849,0 -0.00472005,-0.00854492 -0.00236003,-0.0078125 0.00146484,-0.0065918 0.00561523,-0.0049235 -0.0135091,0 0.00748698,0.0367839 0.00162761,0.0467936 -0.0117188,0.0409342 -0.0315755,0.0194499 0,0.00622559 0.00602214,0.0120036 -0.000813802,0.0141195 -0.00358073,0.0147705 -0.0016276,0.0143229 0.00244141,0.0147298 0.0086263,0.0204264 0.00195313,0.00952148 -0.000732422,0.016805 -0.00244141,0.0107829 -0.00390625,0.0082194 -0.00594076,0.00895182 -0.0244141,0.0262858 -0.00341797,0.0112305 -0.00455729,0.00630697 -0.0229492,0.0206299 -0.0209961,0.00891113 0.00504557,0.00972494 0.0104167,0.00927734 0.00553385,0.00317383 -0.00016276,0.0279134 -0.0128581,0.0194906 -0.0409342,0.0351563 0.00887044,0.00512695 0.00390625,0.00467936 -0.000813802,0.00472005 -0.00569661,0.00537109 0.00569661,0.00183105 0.00195313,0.00183105 -0.00195313,0.00187174 -0.00569661,0.00187175 -0.00406901,0.00594075 -0.00472005,0.00545247 -0.00553386,0.00480143 -0.00187174,0.00398763 0.00113932,0.00256348 0.00333659,0.0020752 0.00398763,0.0016276 0.00773112,0.000895183 0,0.0061442 -0.00236003,0.00732422 0,0.00585938 0.00236003,0.00854492 -0.00626628,0 -0.0129395,-0.024292 -0.00113932,-0.0106608 0.00260417,-0.00789388 0.00553385,-0.00553385 0.00488281,-0.00728353 0.00105794,-0.0131836 -0.0074056,0 -0.00236003,0.0126546 -0.0078125,0.00687663 -0.0112305,0.000447591 -0.0126953,-0.00634766 -0.0166016,0.00537109 -0.0195313,-0.0109456 -0.0170085,-0.0184326 -0.00895182,-0.0169678 -0.00113932,-0.0183512 0.00610352,-0.0148926 0.0140788,-0.0104167 0.0225423,-0.00472005 -0.017985,-0.0127767 -0.0835775,-0.102173 -0.00496419,-0.00793457 -0.0101725,-0.00960286 -0.02889,-0.0461426 -0.00585938,-0.016276 -0.000651042,-0.0413818 -0.00585937,-0.0168864 -0.013916,-0.0137533 0,-0.00744629 0.0106608,-0.00744629 0.0113118,-0.0137533 0.0090332,-0.0140788 0.00813802,-0.0211182 0.0109049,-0.0104574 0.050944,-0.0288493 0.0126953,-0.0094808 0.0459798,-0.0472005 0.03125,-0.0164388 0.0284017,-0.0257975 0.0242513,-0.0287272 0.0102539,-0.0196126 0.00390625,-0.0246175 0.0100911,-0.032959 0.0131836,-0.0307617 0.0136719,-0.0181071 0,-0.00626628 -0.00366211,-0.017863 0.0275065,-0.0983073 0.00276693,-0.00984701 0.000732422,-0.0216878 -0.00553386,-0.0082194 -0.00992838,-0.00797526 -0.00528971,-0.011556 -0.0107422,-0.00431315 -0.00349935,-0.00887044 0.00764974,-0.0105794 -0.00512695,-0.0297038 -0.00170898,-0.0351562 0.0065918,-0.0108236 0.0306803,-0.027832 0.0105794,-0.0125326 0.00317383,-0.0105794 0.000732422,-0.0201823 0.00358073,-0.0102132 0.0226237,-0.0218506 0.00406901,-0.00236003 0.0416667,-0.0515137 0.035319,-0.00545247 0.0223796,-0.0212402 0.0137533,-0.0302734 0.0445964,-0.148315 0.00366211,-0.0206299 0.0106608,-0.00349935 0.0476888,-0.0238444 0.0241699,-0.0205892 0.0121257,-0.013265 0.00935872,-0.0179036 0.00968424,-0.00325521 0.0112305,-0.00236003 0.00911458,-0.00472005 0.00325521,-0.00614421 0.00683594,-0.0203044 0.0287272,-0.0489095 0.0090332,-0.00720215 0.000244141,-0.00435384 -0.00146484,-0.0012207 -0.00284831,8.138e-005 -0.00349935,-0.000651041 0.0443522,-0.0321859 0.0191243,-0.0214844 -0.00138346,-0.0214844 0.00764974,-0.00561523 0.00683594,-0.0112305 0.00488281,-0.0124512 0.00179036,-0.00882975 0.00406901,-0.00333659 0.0225423,-0.0279948 0.0474447,-0.0447998 0.0116374,-0.0214437 0.0100098,-0.00528971 0.0114746,-0.00431315 0.00830078,-0.00545247 0.00480143,-0.0133464 -0.000651042,-0.0110677 0.00325521,-0.00756836 0.0167643,-0.00280762 0.0170898,-0.00769043 0.0332031,-0.0360107 0.0217285,-0.0109456 -0.00138346,-0.00626628 0.00138346,-0.00813802 0,-0.00602214 -0.00203451,-0.0082194 0.00748698,-0.0061849 0.0118815,-0.00252279 0.0105794,0.00260417 0.0086263,-0.0148112 0.0219727,-0.0086263 0.0450846,-0.0107015 0.0708008,-0.0574951 0.0228678,-0.0426432 0.0119629,-0.00972493 0.0069987,-0.0102132 0.0218099,-0.0459798 0.00219727,-0.0120443 0,-0.00622559 0.00488281,-0.00769043 0.00382487,-0.0194092 0.00496419,-0.00769043 0,-0.0061849 -0.00683594,0 -0.0136719,0 -0.0114746,0.0221761 -0.0236003,0.0126546 -0.0266927,0.00887044 -0.0208333,0.0109456 -0.00675456,0 -0.00610352,-0.0142822 -0.00260417,-0.00842285 0.00195313,-0.00732422 0.00675456,-0.0109456 0.019043,-0.0174154 0.010498,-0.0124105 0.00455729,-0.0151774 0.00642904,-0.00801595 0.0144043,0.00386556 0.0143229,0.00585938 0.00642904,-0.00170899 -0.00146484,-0.0136312 -0.00390625,-0.0144043 -0.0065918,-0.013387 -0.00911458,-0.0104167 0.00398763,-0.00354004 0.00537109,-0.00634766 0.00431315,-0.00313314 0.0180664,-0.0118001 0.00642904,-0.00187175 0.00292969,-0.00394694 0.00968425,-0.0184326 0.00447591,-0.00553385 0,-0.00683594 -0.010498,0.00785319 -0.0236816,0.0268962 -0.0074056,0 0,-0.0074056 0.00349935,-0.0053304 0.00390625,-0.00899251 -0.0074056,0 -0.00626628,0.0195313 -0.0176595,-0.00162761 -0.0193685,-0.0138346 -0.0108236,-0.0170898 0.0233561,-0.0108236 0.0166016,-0.0196126 0.0284017,-0.0446777 -0.00390625,-0.00634766 -0.00252279,-0.00805664 -0.00130208,-0.00952148 0.000895182,-0.0108236 0.0166016,-0.0109049 0.0437012,-0.0177409 0.0148112,-0.0122884 0.00292969,-0.00911458 0.00130208,-0.021932 0.00317383,-0.00996908 0.00675456,-0.00834147 0.0169271,-0.016154 0.00708008,-0.00992838 0.00634766,-0.0202637 0.00732422,-0.0444336 0.00683594,-0.0138346 0.0331217,-0.0281576 0.0385742,-0.0233561 0.0423177,-0.0182292 0.019694,-0.0124105 0.0130208,-0.0171305 0.00211589,-0.010498 -0.00211589,-0.0379232 -0.00227865,-0.00333659 -0.00911458,-0.00667318 -0.00227865,-0.00366211 0.000651042,-0.00585937 0.00496419,-0.00870768 0.0012207,-0.00594076 0.000976562,-0.0220947 0.00423177,-0.0171305 0.0104167,-0.0137533 0.0187988,-0.0118408 0.0171712,-0.0143636 0.0182292,-0.022054 0.00732422,-0.0166016 -0.014974,0.00179036 0.00016276,-0.0160319 0.0069987,-0.0136719 0.0200195,-0.0249023 0.00854492,-0.0151367 0.0126139,-0.0296224 0.00960286,-0.0135905 0.0126953,-0.00911458 0.0144857,-0.00691732 0.0121257,-0.00752767 0.00512695,-0.0108643 0.0065918,-0.0316569 0.000895182,-0.0159505 -0.00748698,-0.0110677 -0.0164388,-0.000773112 -0.0109049,0.00927734 -0.00911458,0.00341797 -0.0113932,-0.0187988 -0.00244141,-0.0132243 0,-0.0177816 0.00195313,-0.0175781 0.00390625,-0.0131429 0.000244141,-0.0259196 -0.0197754,-0.0607503 0.00927734,-0.0290934 0.0139974,-0.010498 0.0323893,-0.00891113 0.0157878,-0.00846354 0.0104167,-0.0139974 0.00992839,-0.0309245 0.0324707,-0.0384115 0.0142415,-0.0274251 0.0341797,-0.0882161 0.0148112,-0.0263672 0.0203451,-0.0279948 0.0133464,-0.0251872 0.0241699,-0.0322673 0.0844727,-0.175374 0.0390625,-0.0516764 0.037679,-0.0860189 0.078776,-0.0986328 0.00748698,-0.0129395 0.00976562,-0.0283203 0.0670573,-0.0902507 0.0364583,-0.0359701 0.00830078,-0.0106201 0.0869141,-0.15564 0.0136719,-0.0473633 0.0242513,-0.0423177 0.010498,-0.0510254 0.0180664,-0.0276693 0.0433757,-0.0497233 0.00602214,-0.0124919 0.0094401,-0.0291748 0.0061849,-0.0135498 0.0299479,-0.0417074 0.0119629,-0.0427653 0.0463053,-0.0727946 0.0859375,-0.135457 0.00390625,-0.0321045 0.0106809,-0.0271165 0.0161729,-0.0177316 0.0198585,-0.0213954 0.00325521,-0.0183105 0.000895182,-0.0373942 0.00268555,-0.0187581 0.00561523,-0.0149333 0.00805664,-0.0111898 0.011556,-0.00927734 0.0157878,-0.00927734 0.0258789,-0.0217692 0.0172526,-0.0286865 0.0232747,-0.0785319 0.00553385,-0.0131022 0.0174154,-0.026123 0.01905,-0.0317636 0.014256,-0.0112799 0.00038542,-0.0161199 -0.0162106,-0.0308236 0.000111923,-0.0274684 0.0411638,-0.0145433 0.0497346,-0.0855373 0.135161,-0.0940281 0.0212402,-0.0233154 0.036789,-0.0968293 0.0270917,-0.0269649 0.0380912,-0.0500882 0.0166805,0.00233292 -0.00742701,0.013874 -0.00931503,0.0138819 0.0101331,0.00154883 0.0202895,-0.0192626 0.0278698,-0.010775 0.036313,-0.0346628 0.0143535,-0.0277361 0.00253505,-0.0292839 0.0303702,-0.0169525 0.0312189,0.00538799 0.0244653,-0.00617439 0.0261639,-0.00772329 0.0210922,-0.0100375 0.0151759,-0.0146579 0.0210784,-0.0447475 0.01771,-0.021621 -0.00675647,-0.00924507 -0.0151822,0.0193043 -0.0202409,0.0200732 -0.0143437,0.000785257 -0.0362938,-0.0153802 -0.0151979,-0.00691223 -0.0202461,0.00773307 -0.0185244,0.00691273 -0.0185479,0.00308161 -0.0134909,-0.00154167 -0.0151779,0.00231154 -0.0185521,0.00693505 -0.00674935,0.00847666 -0.0114536,0.0123549 -0.0103353,0.00321452 -0.000895183,0.00508626 -0.0152725,0.00630918 -0.0213486,0.00532819 -0.00900548,-0.0061176 -0.0136996,-0.0234234 -0.00735039,-0.02979 0.00678695,-0.0477916 -0.00923266,-0.0416473 -0.00665767,-0.0304332 0.00845608,-0.0254282 0.0184975,-0.00379216 0.00842679,-0.0123161 -0.000826188,-0.0146494 -0.00320783,-0.00716467 0.00154889,-0.0167323 0.00085281,-0.0115605 0.00170489,-0.0223497 -0.00467626,-0.0414391 -0.00187174,-0.0868327 -0.00219727,-0.0157064 -0.00976562,-0.0277913 -0.00227865,-0.0151367 0.00390625,-0.0146484 0.00927734,-0.0151367 0.0215658,-0.0282796 0.0171712,-0.0293783 0.0061849,-0.0155843 0.00390625,-0.0164795 -0.00113932,-0.0472819 0.00786656,-0.0481382 0.00922328,-0.03666 0.007287,-0.0328636 0.0464067,-0.0732723 0.0140835,-0.0283675 0.0194715,-0.0371759 0.0131744,-0.0911382 0.00724284,-0.0159912 0.0202458,-0.0344937 0.0417659,-0.0481479 0.0266113,-0.0135498 -0.0120443,0.0155436 -0.0282389,0.0458984 0.0195313,-0.000569661 0.0127767,-0.00899251 0.00870768,-0.0146484 0.00675456,-0.0173747 0.0107422,-0.0491536 0.00301107,-0.00793457 0.0163574,-0.0106201 0.00830078,-0.0112305 0.00708008,-0.0124512 0.0129395,-0.0140788 0.0179467,-0.0218275 0.0384166,-0.0272945 0.0362078,-0.0135789 0.0180245,-0.00549574 0.00292969,-0.00382487 0.0126953,-0.00830078 0.0136719,-0.00651042 0.0148926,-0.00419108 0.0556641,-0.00362142 0.0805664,-0.0144857 0.0771484,-0.0240072 0.0283203,-0.0162354 0.048584,-0.0430908 0.0158691,-0.0241699 0.00583019,-0.0461834 0.0170475,-0.0303866 0.0297613,-0.0244833 0.0313454,-0.0218715 0.0153755,-0.00650635 0.0148569,-0.0058678 -0.00319914,0.0156869 0.00530371,6.365e-006 0.0212403,-0.0225318 -0.00527628,-0.0284397 0.0169996,-0.0411625 0.0678754,-0.0283954 0.032874,-0.0176428 0.0222668,-0.0137282 0.060464,-0.0471087 0.090412,-0.0804331 0.019043,-0.00952148 0.0148112,0.00134277 0.00374349,0.00598145 0.00195312,0.00622559 0.00358073,0.00374349 0.00805664,-0.00195313 0.017334,-0.010498 0.00813802,-0.00683594 0.00528971,-0.00683594 0.0137533,-0.0300293 0.00878906,-0.0119222 0.0150553,-0.0129801 0.0386773,-0.02174 0.0234429,-0.00797941 0.00379776,-0.03628 -0.000732422,-0.0123698 -0.0065918,-0.0107422 -0.00805664,-0.0100911 -0.00016276,-0.000935872 -0.23375,-8.2e-007 -0.232647,-5.1676e-005 -0.232647,-5.1677e-005 -0.232751,0 -0.232647,0 -0.232751,-5.1676e-005 -0.232647,0 -0.232647,0 -0.232647,0 -0.232751,-5.1677e-005 -0.232647,-5.1676e-005 -0.232647,0 -0.00627681,0 -0.226474,0 -0.232647,0 -0.232699,0 -0.211221,-4.69376e-005 -0.021323,-4.7384e-006 -5.4885e-005,0 -0.102368,0 -0.102319,0 -0.102423,0 -0.102319,0 -0.102474,0 -0.102423,0 -0.0209154,0 -0.0814556,0 -0.102319,0 -0.102423,0 -0.102319,0 -0.102423,0 -0.102319,0 -0.102423,0 -0.102319,0 -0.102423,0 -0.102319,0 -0.0270566,-1.6202e-005 -0.0592431,-3.5475e-005 0.031936,0.0887801 0.023151,0.0640788 0.00124023,0.0250114 -0.00888835,0.0222209 -0.0220142,0.0200505 -0.0183968,0.00868164 -0.0192236,0.00279053 -0.0192236,-0.00320394 -0.0187069,-0.00930176 -0.0258382,-0.026355 -0.0451237,-0.085831 -0.00345219,-0.0065665 -0.0492993,-0.0939478 -0.0132292,-0.00738973 -0.0382922,0 -0.0972034,0 -0.0973584,5.1677e-005 -0.0974101,5.1676e-005 -0.0974101,0 -0.097255,0 -0.0973584,0 -0.0973584,0 -0.097255,0 -0.097255,5.1677e-005 -0.0973584,0 -0.0975134,0 -0.0972034,0 -0.0973584,0 -0.097255,5.1675e-005 -0.097255,5.1677e-005 -0.0973584,0 -0.0973584,0 -0.0973584,0 -0.0974101,5.1676e-005 -0.0972034,0 -0.097255,0 -0.0973584,0 -0.0973584,0 -0.097255,5.1677e-005 -0.0973584,5.1676e-005 -0.0973584,0 -0.0973584,0 -0.0974101,0 -0.0972034,0 -0.0973584,0 -0.0974101,5.1677e-005 -0.0972034,0 -0.0973584,0 -0.0973584,5.1676e-005 -0.0973584,5.1677e-005 -0.097255,0 -0.0973584,0 -0.0973584,0 -0.0973584,0 -0.0973584,0 -0.097255,5.1677e-005 -0.0973584,0 -0.0973584,0 -0.097255,0 -0.0973584,0 -0.097255,5.1675e-005 -0.0973584,5.1677e-005 -0.0973584,0 -0.0973584,0 -0.097255,0 -0.097255,5.1676e-005 -0.0973584,0 -0.097255,0 -0.0974618,5.1677e-005 -0.0973584,5.1676e-005 -0.097255,0 -0.097255,0 -0.0973584,0 -0.0973067,5.1677e-005 -0.097255,0 -0.0974618,0 -0.0973584,0 -0.0973584,0 -0.097255,5.1676e-005 0,0.291817 0,0.291817 0,0.291817 0,0.291868 0,0.291765 0,0.291843 0,0.291868 0,0.291817 0,0.291765 0,0.291843 0,0.291868 0,0.291817 0,0.291713 0,0.291868 0,0.291868 0,0.291817 0,0.19544 0,0.189276 0,0.0887951 0,0.337421 0,0.152368 0,0.038679 0,0.352047 0,0.0781513 0,0.394843 0,0.398632 0,0.167742 0,0.123455 -0.00692464,0.0575675 -0.0176733,0.0537435 -0.082889,0.175648 -0.00992188,0.0345715 -0.00227376,0.038654 0.0089917,0.0724504 0.000103352,0.0243396 -0.0144694,0.0411344 -0.051263,0.0753184 -0.00671794,0.0416254 0.0167432,0.0521415 0.00124023,0.0198437 -0.00454753,0.0224792 -0.0860929,0.187482 -0.0282153,0.044235 -0.0089917,0.0215491 0.00031006,0.0386023 0.0160197,0.03514 0.0414445,0.0648539 0.0167432,0.0343132 0.00950846,0.0139526 0.0270785,0.0298173 0.0302824,0.0267167 0.0583944,0.0767912 0.0195337,0.0343132 0.00940511,0.0337964 0.00330729,0.0198954 0.0302824,0.0688847 0.010542,0.0550354 0.0124023,0.0399976 0.0149862,0.0343132 0.00630452,0.0345199 -0.0136426,0.0403076 -0.0436149,0.0803569 -0.0130225,0.0510046 -0.0350366,0.0620634 -0.00692464,0.0202572 -0.023151,0.106867 -0.000930176,0.0819588 -0.00992188,0.0841292 0.000310059,0.0365869 0.012299,0.0317293 0.162471,0.11405 0.0366903,0.0849561 0.0280086,0.0341581 0.0624678,0.0429565 -0.00146484,-0.00760905 0.0123698,-0.0653076 0.0110677,-0.0319824 0.0180664,-0.0201009 0.0216471,-0.00512695 0.0508626,-0.00268555 0.0386556,-0.0171305 z M 9.85586,6.00167 l -0.0259603,-0.00467936 -0.0113932,-0.00512695 -0.00366211,-0.0106608 0.00472005,-0.00439453 0.00398763,-0.0037028 0.0169271,-0.00158691 0.0291341,0.00427246 0.0126139,0.00394694 0.00219727,-0.00195312 0.00211589,-4.0691e-005 0.00472005,-0.0065918 0.00439453,-0.00756836 0.00113932,-0.00280762 8.138e-005,-8.138e-005 0.0161133,-0.0124512 0.0191243,-0.0148112 0,-0.00744629 -0.0382487,-0.00244141 -0.0349935,0.00174967 -0.0291341,0.0107422 -0.0199382,0.0227051 -0.00179036,0.0020345 0.00146484,0.0135905 -0.00341797,0.0194906 -0.00488281,0.0078125 0.00349935,0.00476074 0.00138346,0.000976562 8.138e-005,-0.00012207 0.00187175,-0.00561523 8.138e-005,0.00016276 0.00358073,0.00760905 0.00488281,0.00610352 0.00585937,0.00423177 0.0065918,0.00240072 8.138e-005,-4.069e-005 0.0174154,-0.00826009 0.00569662,-0.00512695 0.00366211,-0.00708008 z M 9.31826,5.5151 l 0.0218913,-0.00744629 0.00642904,-0.0170085 0.00349935,-0.0183919 0.0128581,-0.0118001 0,-0.0061849 -0.00708008,0.000976563 -0.0131022,0.00187174 -0.0180664,0.0184733 -0.00594076,0.00610352 -0.0212402,0.00606282 -0.00976563,0.00524902 -0.00952148,0.0102539 -0.0101725,0.00675456 -8.138e-005,0 -0.0225423,-0.00968424 -0.00927734,0.00671387 -0.0069987,0.0117594 -0.00390625,0.0105387 0,4.069e-005 0.00561523,0.00646973 0.0065918,0.0041097 0.00732422,0.00203451 0.00830078,0.000406901 0.0227051,-0.00264486 0.0078125,-0.00447591 0.00878906,-0.00504557 0.00805664,-0.00634766 0.00512695,-0.00394694 0.0126953,-0.00484212 z M 10.0438,5.92457 l -0.0274672,-0.010575 -0.0236554,0.00680548 -0.0192536,0.0150446 0.0199876,0.0284851 0.0501087,-0.00156213 0.000279954,-0.0381981 z M 8.4164,9.24593 l 0.157715,-0.0166829 -0.00634766,-0.00431315 -0.0126139,0 -0.0309245,0.00500488 -0.0297038,0.0037028 -0.0297852,0.00374349 -0.0340983,-0.00813802 -0.0164388,0.00313314 -0.026123,-0.00801595 -0.120524,-0.0555827 -0.0211589,-0.0152181 0.0117187,0.0153402 0.0232747,0.00976563 0.0193685,0.0090332 0.0123698,0.00622559 0.0133464,0.00842285 0.0520833,0.0207113 0.0117187,0.00968424 0.026123,0.0131836 z M 9.3146,4.73727 l 0.000651042,-0.0234375 -0.0139974,0.012085 -0.00683594,0.0137939 -0.0276693,0.0559489 0.0154622,0.000651042 8.1381e-005,-4.069e-005 0.00496419,-0.000610352 0.0198568,-0.0383301 0.00748698,-0.0200602 z M 8.74461,9.1777 l 0.0429688,-0.0303141 -0.0215658,0.0129395 -0.15568,0.0581055 -0.02889,0.00398763 0.0313314,-0.000895183 0.0514323,-0.0209961 0.0234375,-0.00537109 0.0300293,-0.00504557 0.0269368,-0.0124105 z M 8.29865,9.08928 l 0.00227864,-0.0102132 -0.0107422,0.00826009 -0.00341797,0.00480143 -0.00537109,8.138e-005 0.00732422,0.00467936 0.00602214,-0.00134277 0.00390625,-0.00626628 z "/>
</g></g></svg>