<?xml version="1.0" encoding="UTF-8" standalone="no"?>
<!DOCTYPE svg PUBLIC "-//W3C//DTD SVG 1.1//EN" "http://www.w3.org/Graphics/SVG/1.1/DTD/svg11-flat.dtd"
[

]>
<svg xmlns="http://www.w3.org/2000/svg"  viewBox="-0.0204965 -0.0204965 1.68071 3.95802"><g fill="none" stroke="black" stroke-width="0.000204965" transform="translate(0,3.91703) scale(1, -1)">
<g id="israel" >
<path d="M 1.55528,3.75877 l 0.00403076,-0.0467413 0.0225309,-0.0117306 0.00320394,-0.0288613 -0.0109554,-0.0195595 -0.0109554,-0.0148053 0,-0.014857 0.0374137,-0.0132292 -0.00310059,-0.013255 0.0132292,-0.0952138 0.00558105,-0.0124799 0.0234611,-0.0327887 -0.014056,-0.0226084 -0.00713135,-0.00155029 -0.0171566,-0.0249597 -0.0116789,-0.0297915 0.00382406,-0.012454 -0.00764811,-0.0256315 -0.0500228,-0.0499969 -0.0266126,-0.0336019 -0.000155819,-6.5344e-005 -0.0172599,-0.00374654 -0.0549837,-0.0293005 -0.0331763,-0.0250631 -0.0160197,-0.00702799 -0.0236611,0.00239182 -0.000110095,1.1129e-005 -0.0183968,-0.0111879 -0.0150895,-0.016924 -0.00888835,-0.00666626 -0.00713135,-0.00255798 -0.00217041,-0.00330729 -0.000516765,-0.00821655 0.00403076,-0.00720886 0.00847493,-0.00423747 0,-0.00622701 -0.00692464,0 0,-0.00746724 0.00568441,-0.0089917 0.00310058,-0.0257865 0.00558105,-0.0123765 -0.00413411,-0.00542602 -0.00144694,-0.000568441 -0.000516764,0.00235128 -0.00134359,0.00364319 -0.00237712,-0.00356567 -0.00454753,-0.0107229 -0.00620117,0.00684713 0.00341065,-0.020929 0.00279053,-0.00643372 -0.0136426,0 0,-0.00676961 0.005271,0.000516764 0.00413411,-0.000155029 0.00713135,-0.00891419 0.00206706,-0.00423747 0.00940511,-0.00829407 0,-0.00625285 -0.0089917,-0.00227376 -0.00599447,-0.00529683 -0.0037207,-0.00682129 -0.00186035,-0.0066921 0.0037207,-0.00222209 0.00227376,-0.00186035 0.00268718,-0.00134359 0.00444417,-0.000775146 0,-0.00746725 -0.00630452,-0.00361735 -0.00682129,-0.00258382 0.00620117,-0.00682129 -0.0136426,-0.00749308 0.00217041,-0.001757 0.00206706,0.000335897 0.00165365,-0.000671794 0.00155029,-0.00467672 -0.00744141,0 0,-0.00620117 0.00620117,-0.00524516 0.000930176,-0.00403076 -0.00423747,-0.00279053 -0.00971517,-0.00160197 0.00444417,-0.0110329 0.00237712,-0.00325561 0.00485758,-0.00436666 0.00413411,-0.00620117 -0.0808219,0.0176992 -0.0234611,0.00519348 -0.0238745,0.000645955 -0.0259416,0.00653707 -0.0054777,0.0252181 0.000413411,0.0309542 -0.00888835,0.0235128 -0.0297656,0.0156321 -0.0297656,0.00297139 -0.0629419,-0.00260966 -0.0181901,0.0054777 -0.0285254,0.0199471 -0.013361,0.00597126 -0.00172853,0.000772513 -0.01788,-0.000930176 -0.0139526,-0.00901754 -0.0251147,-0.0247788 -0.0310059,-0.0165881 -0.0299723,-0.0120923 -0.026355,-0.0160972 -0.019637,-0.0290163 -0.0119829,-0.0519193 -0.00393347,-0.0170429 -0.0072347,-0.0205672 -0.0037207,-0.00237712 -0.0133325,-0.00415995 -0.00382406,-0.00232544 -0.00413411,-0.0126866 -0.003514,-0.0314709 -0.00310059,-0.0131 0.0125057,-0.00333313 0.00692464,-0.00749308 0.001757,-0.010542 -0.003514,-0.0127124 -0.00733805,-0.0123765 -0.0388607,-0.0304374 -0.0133325,-0.0147019 -0.0019637,-0.00961182 0.0162264,-0.0309025 0.00496094,-0.0168982 0.012609,-0.0942578 0.000516765,-0.0186552 -0.001757,-0.0221692 0,-0.000671793 0.000310058,-0.000620117 0.000620118,-0.000516765 0.00072347,-0.000413411 0.000826822,-0.00330729 0.00031006,-0.00361735 -0.00031006,-0.00361735 -0.000826822,-0.00341065 -0.00423747,-0.0299723 0.0197404,-0.0390674 0.0118856,-0.0334863 -0.0273885,-0.0130741 -0.0270785,-0.00816488 -0.0059197,-0.013514 -0.00193512,-0.00441768 0.00940511,-0.0167432 0.0329696,-0.00496094 0.0156063,-0.00015503 0.00713135,0.00124023 0.00992187,0.005271 0.0176733,0.0162264 0.00744141,0.00403076 0.0141593,-0.00201538 0.0521932,-0.0213424 0.0695565,-0.0139526 0.0169499,-0.00894002 0.00785482,-0.0124023 0.001757,-0.0166398 -0.00144694,-0.0214974 -0.0037207,-0.00568441 -0.00454753,-0.00124023 -0.00516764,0.00217041 -0.00568441,0.0045992 -0.0617017,-0.0113688 -0.0190169,-0.00816488 -0.01788,-0.0123507 -0.0348299,-0.0303857 -0.0804085,-0.0518315 -0.0182935,-0.0185002 -0.00213741,-0.00355006 -0.015846,-0.0263189 -0.00444417,-0.0270784 -0.000413411,-0.027957 -0.00568441,-0.0325562 -0.0450618,-0.0645439 -0.0145728,-0.0334347 0.0116789,-0.0335897 0.0221175,-0.014366 0.0264583,-0.00356567 0.0274919,0.0037207 0.0254248,0.00754476 0.0598413,0.007028 0.124747,-0.000930176 0.0583944,0.0187585 0.109037,0.077773 0.0577743,0.028267 0.0680062,0.00485758 0.000413411,-0.000310058 -0.00141049,-0.0580946 -0.000243156,-0.010015 -0.00403076,-0.022686 -0.0177767,-0.0402043 -0.0186035,-0.0287838 0.00744141,-0.0072347 -0.00165364,-0.0216007 -0.014056,-0.0209806 -0.0125057,-0.0243396 0.0054777,-0.0273885 0.00950846,-0.0256832 0.0106453,-0.0201021 0.0148828,-0.0249597 0.00702799,-0.0273368 -0.00475423,-0.0284737 -0.0469222,-0.0797884 -0.00640788,-0.0293005 0.000103353,-0.0313676 -0.0111621,-0.0181384 -0.0269885,-0.0224311 -0.0121823,-0.0101251 -0.0127124,-0.0226343 -0.00268718,-0.0226343 0.000516764,-0.0223759 -0.00341064,-0.0221175 -0.00578776,-0.00950846 -0.0169499,-0.0131258 -0.00775147,-0.00785482 -0.00661458,-0.0120923 -0.00341064,-0.0112655 -0.00454753,-0.0252698 -0.00769081,-0.023739 -6.0655e-005,-0.000187221 -0.0584977,-0.102681 -0.0432015,-0.122421 -0.00475423,-0.0238228 -0.0173633,-0.0406694 0,-0.0240295 0.00496094,-0.0102836 0.014366,-0.0202572 0.00279053,-0.014211 -0.00217041,-0.013901 -0.0054777,-0.0107487 -0.00671794,-0.0102836 -0.00599447,-0.0125057 -0.00940511,-0.0520898 -0.00713135,-0.0172083 -0.000413412,-0.0285771 0.0204639,-0.0611849 0,-0.0315226 -0.0162264,-0.0336414 -0.0427881,-0.0557072 -0.0115755,-0.0394291 -0.000620117,-0.0120406 -0.0037207,-0.00883667 -0.00496094,-0.00775146 -0.00392741,-0.00862996 -0.00733805,-0.0339514 -0.000930176,-0.0607715 -0.00423747,-0.0203088 -0.0464054,-0.109218 -0.00744141,-0.0249339 -0.005271,-0.0561981 -0.00950846,-0.0249597 -0.0133325,-0.0188877 -0.00713135,-0.0219108 -0.0042802,-0.0272185 -3.25785e-006,-3.7175e-007 -0.00423177,-0.0133464 -0.00634766,-0.00878906 -0.0172526,-0.0188395 -0.00797526,-0.0106201 -0.00398763,-0.00716146 -0.00170898,-0.00642904 -0.00325521,-0.00386556 -0.0078125,-0.000244141 -0.00927734,0.000854493 -0.0069987,-0.000488282 -0.008621,0.0142407 -0.022841,0.0414187 -0.00702799,0.0239262 0.00186035,0.0691172 -0.0257349,0.102939 -0.0391707,0.0939994 -0.0438216,0.104541 -0.00630453,0.0543119 0.000516765,0.0061495 -0.000620118,0.00599447 -0.001757,0.00589111 -0.00279053,0.00558105 -0.0387573,0.0963765 -0.0590145,0.147485 -0.0331763,0.0824756 -0.0110588,0.0143144 -0.0545703,0.0413928 -0.00692464,0.00940511 -0.00217041,0.0115238 0.001757,0.01757 0.00950846,0.029869 0.000206705,0.0135909 -0.00992187,0.0123507 0,5.1677e-005 -0.0159163,0.0187585 -0.00599447,0.0170015 -0.00217041,0.0413411 -0.0218075,0.07953 -0.0615983,0.140095 -0.050953,0.116117 -0.0383439,0.0870748 -0.0315226,0.0842843 -0.0393774,0.105368 -0.0102604,0.0273048 0.0160482,0.0127445 0.0514697,0.0327112 0.0350366,0.0323494 0.00289388,0.0171049 -0.00826823,0.0343648 0.000310059,0.0170015 0.0214974,0.0350883 0.113068,0.0928109 0.0150895,0.00878499 0.000206705,0 0.0325562,0.0257349 0.00217041,0.021239 -0.0190169,0.0202055 -0.0302083,0.0215525 7.66e-006,1.532e-005 0.00830078,0.0172526 0.0244141,0.0267334 0.0887858,0.130615 0.00691732,0.00777181 0.0563151,0.108358 0.0272624,0.0525716 0.0187174,0.0251465 0.0314128,0.0882568 0.000651041,0.00476074 -0.00130208,0.0109863 0.000651042,0.00476074 0.0136719,0.00622559 0.0806478,0.214111 0.0355632,0.149618 0.0309245,0.13029 0.00569662,0.00964355 0.00602213,0.044637 0.00504557,0.0133464 -0.00179036,0.0147298 0.0229492,0.081543 0.00545247,0.0896403 0.00805664,0.020223 0.0148926,0.0069987 0.0126953,-0.00260417 0.0202637,-0.0112305 0.0152995,-0.00252279 0.00895182,0.00158691 0.0350749,0.0317383 0.00431315,0.00850423 0.00846354,0.0262451 0.00406901,0.012736 -0.00179036,0.0120443 -0.0123698,0.00520833 0.00610352,0.0148519 0.00691732,0.0609131 0.0135091,0.0323486 0.00423177,0.019165 -0.00406901,0.017334 0.00431315,0.00366211 0.00537109,0.00626628 0.00463867,0.00313314 -0.00683594,0.00683594 0.00463867,0.000935872 0.000976562,0.000488282 0.0800378,-0.00503948 0.00434082,0.00155029 0.0110588,0.00720886 0.00651123,0.00206706 0.00599447,-0.000361735 0.0141593,-0.00307475 0.00713135,-0.000439249 0.0370003,0.0102578 0.0121956,0 0.0051597,-0.00198356 0.0057957,-0.00222806 0.0111621,-0.00759643 0.00992188,-0.0101544 0.00692464,-0.0118597 0.00930176,-0.0102061 0.0132292,-0.00157613 0.0564307,0.0123507 0.0478524,0.0172858 0.0306958,0.00217041 0.00496094,0.0152187 0.0186035,0.0280086 0.00857829,0.0167948 0.00537435,0.0254765 0.00237712,0.0492993 0.00775147,0.0220658 0.00909505,0.0136167 0.00589111,0.0136684 0.00671794,0.00948263 0.0116789,0.00111104 0.00578776,-0.00594279 0.0180868,-0.0239779 0.0127124,-0.00785482 0.000103353,2.5838e-005 0.000206706,-0.000129191 0.00578776,-0.00415995 4.0275e-005,0.000231579 0.000683195,0.00392837 0,5.1677e-005 0,5.1676e-005 -0.00310059,0.018371 0.00888835,0.00754476 0.0143527,0.00265427 0.0158263,0.00292679 0.0199471,0.01341 0.0380339,0.0334088 0.0176733,0.0040566 0.0132292,0.00108521 0.0142627,0.00335897 0.0138493,0.0051418 0.0118856,0.00633036 0.0163298,0.0152445 0.0199471,0.0334605 0.0153996,0.0153737 0.00134359,-0.00534851 -0.0054777,-0.00617533 -0.00155029,-0.0163298 -0.00310059,-0.00550354 -0.00237712,-0.0133325 -0.0164331,-0.0101027 -0.00775146,-0.00705383 -0.0219108,-0.00847494 0.0382406,-0.0219108 -0.0334863,-0.0397909 0.00702799,-0.00780314 0.0280086,-0.0164331 z "/>
</g></g></svg>