<?xml version="1.0" encoding="UTF-8" standalone="no"?>
<!DOCTYPE svg PUBLIC "-//W3C//DTD SVG 1.1//EN" "http://www.w3.org/Graphics/SVG/1.1/DTD/svg11-flat.dtd"
[

]>
<svg xmlns="http://www.w3.org/2000/svg"  viewBox="-0.198371 -0.198371 16.2665 14.0818"><g fill="none" stroke="black" stroke-width="0.00198371" transform="translate(0,13.6851) scale(1, -1)">
<g id="libya" >
<path d="M 10.0051,10.7909 l 0.046875,0.0117594 0.0804036,0.0344238 0.111572,0.0635579 0.0205078,0.00813802 0.0450033,0.00708008 0.0203451,0.00935872 0.132487,0.0895589 0.165446,0.171997 0.0438639,0.0667725 0.0240072,0.0289307 0.0365397,0.0251465 0.0177409,0.0152995 0.0633952,0.115926 0.0467936,0.110555 0.00569662,0.0426432 -0.00569662,0.128581 -0.0185547,0.0262044 -0.024821,0.0657552 -0.0210775,0.0278727 -0.0438639,0.0392659 -0.0161133,0.0209147 -0.0673828,0.162679 -0.00594076,0.0415446 -0.000895182,0.0440674 -0.00366211,0.0163574 -0.0174154,0.0377197 -0.00626628,0.0185547 -0.00341797,0.0415039 0.00244141,0.0454508 0.0146484,0.0837402 0.0136719,0.037557 -0.00219727,0.0100098 -0.00406901,0.0109456 -0.0016276,0.0108236 0.00447591,0.00976563 0.0126139,0.0152181 0.0908203,0.16333 0.0235189,0.0303548 0.190186,0.163127 0.0154622,0.0212809 0.0482585,0.0489909 0.0202637,0.0100911 0.0397949,0.0147298 0.0178223,0.0126953 0.0134277,0.0121257 0.145915,0.0983887 0.233887,0.0851644 0.137533,0.0795898 0.116862,0.0496826 0.0457357,0.00878906 0.190104,-0.00992839 0.0450846,0.00349935 0.0829264,0.0187581 0.0397949,0.019165 0.154053,0.118164 0.0145671,0.00602214 0.0485026,0.00313314 0.0445964,0.010498 0.0273437,-0.0195313 0.0437826,-0.0148926 0.0486654,-0.00939941 0.0413411,-0.00333659 0.21875,0.0198568 0.00512695,0.00333659 0.010498,0.0144857 0.00488281,0.00325521 0.0221354,0.00341797 0.0107422,0.000366211 0.0118001,-0.00378418 0.00805664,-0.00594076 0.0016276,-0.00528971 0,-0.00667318 0.00398763,-0.0100098 0.0317383,-0.0281169 0.0405273,-0.00728353 0.0922852,0.00130208 0.0395508,-0.0118001 0.0981445,-0.0632731 0.0194499,-0.00976562 0.0170898,-0.00634766 0.0183919,-0.00341797 0.0466309,-0.00292969 0.233643,-0.0600993 0.0541992,-0.0303548 0.0178223,-0.00439453 0.0113118,-0.00158691 0.0333659,-0.0114746 0.0134277,-0.00166829 0.0342611,0.00166829 0.0227865,-0.00614421 0.0416667,-0.0180257 0.0450846,-0.00606282 0.019694,-0.00663249 0.0125326,-0.010498 0.00227864,-0.0141195 -0.00569661,-0.0102946 -0.017334,-0.0182699 -0.00349935,-0.00927734 0.0094401,-0.0610352 0.0094401,-0.0155436 0.0153809,-0.0123291 0.0202637,-0.010376 -0.00797526,-0.0195313 -0.0125326,-0.0630697 -0.0197754,0.00683594 0.00349935,0.00960286 -0.00227865,0.00838216 -0.00651042,0.00785319 -0.00895182,0.00830078 -0.0152995,-0.0820313 0.00146484,-0.0203857 0.014974,-0.010498 0.0609538,-0.0200195 0.0224609,-0.00358073 0.0161133,-0.00830078 0.0194499,-0.0192464 0.016276,-0.0217692 0.0126953,-0.0300293 0.0138346,-0.00683594 0.0158691,-0.00406901 0.012207,-0.00594076 0.0078125,-0.0114339 0.00927734,-0.0216064 0.00968424,-0.00797526 -0.00179037,0.0165202 -0.0113118,0.0449219 0.0192871,-0.00634766 0.0436198,-0.000732421 0.00887044,-0.00309245 0.0280762,-0.0199788 0.00634766,-0.00337728 0.125814,-0.00927734 0.13859,0.00187175 0.170654,-0.034139 0.158366,-0.0552165 -0.0234375,-0.019694 -0.00455729,-0.00760905 0.00805664,-0.00435384 0.026123,-0.00931803 0.0629883,-0.041748 0.0227865,-0.00541178 0.190267,0.00179036 0.265137,-0.0161133 0.0901693,0.0234375 0.0222982,0.0137533 0.0117187,0.00378418 0.0403646,-0.00683594 0.00797526,0.00195312 0.00773112,0.00378418 0.0074056,0.00183105 0.00813802,-0.00415039 0.00398763,-0.00280762 0.012207,-0.00622559 0.013916,-0.00321452 0.0197754,-0.00899251 0.0326335,-0.00476074 0.0410156,-0.0136719 0.116292,-0.021403 0.0362142,-0.0188802 0.0154622,-0.0327148 -0.00895182,-0.0397135 -0.00219727,-0.021932 0.00732422,-0.0177816 0.0341797,-0.0327962 0.0531413,-0.0661214 0.00520833,-0.0171305 0.0146484,-0.0282796 0.0195313,-0.0295003 -0.00374349,-0.00325521 -0.0016276,-0.00333659 -0.0624678,-0.0429565 -0.0280086,-0.0341581 -0.0366903,-0.0849561 -0.162471,-0.11405 -0.012299,-0.0317293 -0.000310059,-0.0365869 0.00992188,-0.0841292 0.000930176,-0.0819588 0.023151,-0.106867 0.00692464,-0.0202572 0.0350366,-0.0620634 0.0130225,-0.0510046 0.0436149,-0.0803569 0.0136426,-0.0403076 -0.00630452,-0.0345199 -0.0149862,-0.0343132 -0.0124023,-0.0399976 -0.010542,-0.0550354 -0.0302824,-0.0688847 -0.00330729,-0.0198954 -0.00940511,-0.0337964 -0.0195337,-0.0343132 -0.0583944,-0.0767912 -0.0302824,-0.0267167 -0.0270785,-0.0298173 -0.00950846,-0.0139526 -0.0167432,-0.0343132 -0.0414445,-0.0648539 -0.0160197,-0.03514 -0.00031006,-0.0386023 0.0089917,-0.0215491 0.0282153,-0.044235 0.0860929,-0.187482 0.00454753,-0.0224792 -0.00124023,-0.0198437 -0.0167432,-0.0521415 0.00671794,-0.0416254 0.051263,-0.0753184 0.0144694,-0.0411344 -0.000103352,-0.0243396 -0.0089917,-0.0724504 0.00227376,-0.038654 0.00992188,-0.0345715 0.082889,-0.175648 0.0176733,-0.0537435 0.00692464,-0.0575675 0,-0.123455 0,-0.167742 0,-0.398632 0,-0.394843 0,-0.0781513 0,-0.352047 0,-0.038679 0,-0.152368 0,-0.337421 0,-0.0887951 0,-0.189276 0,-0.19544 0,-0.291817 0,-0.291868 0,-0.291868 0,-0.291713 0,-0.291817 0,-0.291868 0,-0.291843 0,-0.291765 0,-0.291817 0,-0.291868 0,-0.291843 0,-0.291765 0,-0.291868 0,-0.291817 0,-0.291817 0,-0.291817 0,-0.12454 -0.000103353,-0.124644 0,-0.124592 0,-0.12454 0,-0.124592 -0.000103353,-0.124592 -0.000103353,-0.12454 0,-0.124592 0,-0.124592 -0.000103352,-0.124592 0,-0.124592 0,-0.124592 -0.000103353,-0.095033 -0.000103353,-0.0950846 0,-0.0951363 -0.000103353,-0.0950846 0,-0.111622 0,-0.00632896 -0.000930176,-0.00155029 -0.000930176,-0.00149862 -0.000930176,-0.00155029 -0.000930175,-0.00149862 -0.00227376,-0.000310058 -0.00217041,-0.000232544 -0.00217041,-0.000232544 -0.00217041,-0.000232544 -0.100769,0 -0.145934,7.7515e-005 -0.122163,2.5838e-005 -0.12454,0.000129191 -0.133739,0.000103353 -0.112965,2.5838e-005 -0.0854728,0.000103353 -0.161127,0 0,-0.124824 0,-0.124773 0,-0.124799 0,-0.124902 -0.123507,0.0610557 -0.123507,0.0609524 -0.123507,0.0609782 -0.123507,0.0610557 -0.123507,0.061004 -0.12361,0.0609265 -0.123403,0.0610557 -0.12361,0.0609524 -0.123507,0.061004 -0.123507,0.0609524 -0.123507,0.0610299 -0.123507,0.061004 -0.123507,0.0610299 -0.123507,0.0609524 -0.123507,0.0609782 -0.123507,0.0609782 -0.12361,0.0610299 -0.123403,0.0609265 -0.12361,0.0609782 -0.123507,0.0610815 -0.123507,0.0609782 -0.123507,0.0609782 -0.12361,0.0610299 -0.123403,0.0609265 -0.12361,0.0609782 -0.123403,0.0610299 -0.123507,0.0609265 -0.12361,0.0610299 -0.123403,0.0610815 -0.12361,0.0609265 -0.123507,0.0609782 -0.123507,0.0610299 -0.123507,0.0609265 -0.12361,0.0610299 -0.123403,0.0609782 -0.12361,0.0609782 -0.123507,0.0610299 -0.123507,0.0610299 -0.101802,0.050262 -0.0217049,0.0107162 -0.123403,0.0609782 -0.12361,0.0609782 -0.123507,0.0610299 -0.123507,0.0609265 -0.123507,0.0610299 -0.12361,0.0610299 -0.123403,0.0609782 -0.12361,0.0609782 -0.123507,0.0610299 -0.123507,0.0609265 -0.123507,0.0609782 -0.123507,0.0610299 -0.123507,0.0609782 -0.12361,0.0610299 -0.123403,0.061004 -0.123507,0.0609524 -0.12361,0.061004 -0.123403,0.0609782 -0.12361,0.0609265 -0.123507,0.061004 -0.123507,0.0610557 -0.123507,0.061004 -0.12361,0.061004 -0.123403,0.0609782 -0.12361,0.0609265 -0.0910539,0.0450877 -0.0204639,-0.00250631 -0.0444417,-0.0201796 -0.0576709,-0.0260966 -0.0576709,-0.0261483 -0.0576709,-0.0261483 -0.0575675,-0.0261224 -0.0576709,-0.0261741 -0.0576709,-0.0261483 -0.0577743,-0.0261483 -0.0576709,-0.0261483 -0.0576709,-0.0261483 -0.0576709,-0.0261741 -0.0576709,-0.0261224 -0.0576709,-0.0260966 -0.0577743,-0.0260966 -0.0574642,-0.0261483 -0.0576709,-0.0261483 -0.0577743,-0.0261483 -0.0175524,-0.00815287 -0.000637747,-0.000296226 -0.000103352,-5.1677e-005 -0.171152,-0.0864288 -0.170946,-0.0863513 -0.171049,-0.0863513 -0.171152,-0.0863513 -0.0631486,-0.0318844 -0.0155029,-0.00165365 -0.0145728,0.00692464 -0.0454753,0.0375171 -0.12516,0.102965 -0.124954,0.102914 -0.12516,0.103017 -0.125109,0.102991 -0.056224,0.0464054 -0.117306,0.0606423 -0.101596,0.0227118 -0.0882633,0.0197146 -0.0882633,0.0196112 -0.0882633,0.0197404 -0.0882633,0.0196887 -0.08816,0.0196887 -0.0882633,0.0196629 -0.08816,0.0196887 -0.0883667,0.0197146 -0.08816,0.0196887 -0.08816,0.0196629 -0.0883667,0.019637 -0.08816,0.0197404 -0.08816,0.0196629 -0.0883667,0.0196629 -0.0882633,0.0196629 -0.08816,0.0197404 -0.0764811,0.142704 -0.0700732,0.130586 -0.112166,0.209495 -0.00152224,0.00284313 -0.0721403,0.134669 -0.0693498,0.129191 -0.0257349,0.03067 -0.0327629,0.0163039 -0.0413901,0.0125244 -0.317244,0.0959961 -0.238642,0.0721661 -0.190686,0.0578001 -0.0216007,0.00382406 -0.0217041,-0.00227376 -0.110588,-0.0373879 -0.116582,-0.0395325 -0.0396875,-0.00364319 -0.0187069,0.0066921 -0.131465,0.0966608 -0.0180868,0.0184743 -0.0125057,0.0348299 -0.01757,0.0929142 -0.0188102,0.0270785 -0.148828,0.0796851 -0.0125057,0.0267167 -0.00206706,0.138725 -0.00444417,0.141335 -0.00413412,0.13162 -0.0134359,0.063407 -0.0384473,0.0639754 -0.152756,0.193063 -0.122783,0.155029 -0.152652,0.192856 -0.140146,0.177043 -0.0233577,0.0555522 0.0247013,0.0472323 0.0139526,0.0160714 0.0182935,0.0397392 0.0341064,0.0290422 0.00878499,0.0145211 0.0037207,0.0170532 0.00124023,0.0199471 0.353157,0.15167 0.0188102,0.0201538 0.0417546,0.128416 -0.00227376,0.0211873 -0.0114722,0.0278019 0.00289388,0.0348299 0.0251147,0.106505 -0.00392741,0.014366 -0.015813,0.0120923 -0.0447518,0.0223759 -0.0109554,0.00904338 -0.00961182,0.0195854 -0.0194303,0.104541 -0.0847493,0.266754 0.000516765,0.0165881 0.00465088,0.0162264 0.0165365,0.0394291 0.0132292,0.0589111 0.0142627,0.0211873 0.0430981,0.0422713 0.00795817,0.0191978 -0.00992188,0.0208514 -0.0145728,0.0223759 -0.00320394,0.0208256 0.024598,0.0159939 0.028112,0.0135651 0.0167432,0.0199471 0.0679176,0.199396 0.0029825,0.0087562 0.00165365,0.0393258 -0.146038,0.342718 -0.0129191,0.058136 0.0503226,0.351069 0.0239881,0.167349 -0.00299723,0.18973 -0.0221175,0.152807 -0.07922,0.239895 -0.07922,0.239895 -0.118029,0.193993 -0.127951,0.166398 -0.0522428,0.0540793 -0.0594817,0.0615726 -0.0234611,0.0327629 0.233164,0.111776 0.223759,0.102423 0.0294556,0.00676961 0.0728638,0.00418579 0.0255282,0.0128674 0.124333,0.139371 0.105523,0.147174 0.0910539,0.0895553 0.0617017,0.110536 0.015813,0.0403593 0.000413412,0.0334863 -0.0251147,0.0700732 -0.00444417,0.03545 0.00558105,0.0383956 -0.00134359,0.0186035 -0.031626,0.0572058 -0.0304891,0.10542 -0.0746208,0.171049 -0.00186035,0.0173633 0.0106453,0.0652157 0.0157096,0.023151 0.0638721,0.0610299 0.0674894,0.101906 0.0514697,0.0353467 0.112345,-0.00124023 0.054777,0.0185002 0.0163298,0.0112138 0.0146761,0.0127124 0.0119889,0.0150378 0.0168465,0.0345715 0.042168,0.0336414 0.0130225,0.0332279 0.00837158,0.0800985 0.0225309,0.0205155 0.0188102,-0.00217041 0.0179834,-0.00873332 0.0182935,-0.00620117 0.0195337,0.00516764 0.0334863,0.0232027 0.0362769,0.0191203 0.0327629,0.0278536 0.0403076,0.0794267 0.0272852,0.024908 0.309124,0.125528 0.261694,0.106267 0.0698665,0.0395066 0.012184,0.00986557 0.0202688,0.0164119 0.0177767,0.0312126 -0.003514,0.0420905 -0.0232544,0.035941 -0.0669727,0.0557589 -0.0204639,0.0386798 -0.000723471,0.0550612 0.0145728,0.105446 -0.0072347,0.103637 0.01788,0.0677736 0.000516765,0.0559656 0.00248047,0.0153737 0.0286287,0.0951621 -0.000934787,0.0448489 2.5763e-005,-5.52073e-006 0.020752,-0.00427246 0.0343424,-0.011027 0.0147298,-0.00797526 0.0126953,-0.0256348 0.0153809,-0.0108236 0.0327148,-0.0127767 0.12085,-0.0161947 0.0368652,-0.0117594 -0.0205078,0.0185954 -0.0651855,0.0178223 -0.0166829,0.0187988 0.0481771,-0.0229899 0.107747,-0.0301514 0.233724,-0.125 0.0416667,-0.036499 0.0382487,-0.00964355 0.064209,-0.0357666 0.0790202,-0.0328369 0.0444336,-0.0104167 0.38151,-0.0340983 0.0945638,0.00577799 0.250081,0.0620117 0.0410156,0.0157878 0.0322266,0.0218506 0.0170085,0.00874837 0.0230306,0.00349935 0.0693359,0.00240072 0.0946452,-0.0144043 0.0113932,-0.00467936 0.0104167,-0.00752767 0.197917,-0.0892334 0.0454915,-0.00939941 0.170166,0.00622559 0.0432129,-0.00553385 0.0849609,-0.0213216 0.0759277,-0.0281982 0.184326,-0.0268962 0.00976563,-0.00317383 0.0180664,-0.0141602 0.00594076,-0.00313314 0.0170085,-0.00630697 0.0361328,-0.030599 0.0546875,-0.0298665 0.0869141,-0.0635986 0.0453288,-0.0414632 0.0201009,-0.00634766 0.162109,-0.0233561 0.0160319,-0.0074056 0.0152995,-0.0115153 0.0437826,-0.0204671 0.0201009,-0.00553385 0.184326,-0.00683594 0.203613,-0.0311279 0.0452474,-0.0141195 0.0219727,-0.00317383 0.0139974,-0.00569661 0.0372721,-0.0426839 0.0364583,-0.0182699 0.0133464,-0.011556 0.00911458,-0.036377 0.0086263,-0.0201009 0.0218099,-0.0366211 0.0419108,-0.0494792 0.00594075,-0.015625 -0.00179036,-0.0210775 -0.0090332,-0.0358887 -0.00276693,-0.040446 -0.0016276,-0.0231527 0.00585938,-0.0732015 0.00935872,-0.0359294 0.119954,-0.264526 0.0240072,-0.036499 0.108398,-0.131104 0.0646973,-0.0594482 0.0739746,-0.0496826 0.283122,-0.11259 0.314046,-0.0484212 0.369385,-0.0032959 0.213867,-0.0405273 0.218424,-0.0644938 0.170247,-0.0323079 0.035319,0.000122071 0.00911458,-0.00354004 0.0069987,-0.00431315 0.0366211,-0.0166016 0.0286458,-0.0234375 0.010498,-0.00537109 0.0090332,-0.00337728 0.147135,-0.0374756 0.0777995,-0.0328369 0.0843099,-0.0244548 0.0725911,-0.011556 0.0130208,-0.0100098 0.0275065,-0.0357259 0.0183105,-0.0144043 0.0192871,-0.00834147 0.0900879,-0.0172933 0.158447,-0.0517985 0.0330404,-0.0168457 0.0273437,-0.0224202 0.0885417,-0.0899251 0.244141,-0.15682 0.0549316,-0.0543213 0.0298665,-0.0234375 0.0660807,-0.0308024 0.041748,-0.00728353 0.0195312,-0.00830078 0.145426,-0.0825602 0.0420736,-0.015625 0.0887858,-0.011556 0.0891927,-0.00146484 0.09375,0.00927734 0.0519206,0.0130615 z "/>
</g></g></svg>