<?xml version="1.0" encoding="UTF-8" standalone="no"?>
<!DOCTYPE svg PUBLIC "-//W3C//DTD SVG 1.1//EN" "http://www.w3.org/Graphics/SVG/1.1/DTD/svg11-flat.dtd"
[

]>
<svg xmlns="http://www.w3.org/2000/svg"  viewBox="-0.0831723 -0.0831723 6.82013 5.17821"><g fill="none" stroke="black" stroke-width="0.000831723" transform="translate(0,5.01186) scale(1, -1)">
<g id="syria" >
<path d="M 6.51343,4.97326 l 0.0303857,-0.0117822 0.00568441,0.00222209 0.00630453,0.00552938 0.00661458,0.00428914 0.00620117,-0.00149862 0.00434082,-0.00537435 0.00506429,-0.00976685 0.00434082,-0.00537435 0.0341064,-0.0219108 0.00682129,-0.00286804 0.00651123,-0.0127382 -0.01788,-0.0558622 0.0113688,-0.0127382 0.00785482,-0.0060203 0.0019637,-0.0141335 0.000723469,-0.0282928 0.00640788,-0.0118339 0.00754476,-0.0102061 0.00568441,-0.0111879 0.000310058,-0.0145211 -0.000379782,-0.000234387 -0.0309361,-0.0190926 -0.0639754,-0.0487826 0,-0.000103353 0,-5.1676e-005 -0.000310058,0 -0.103146,-0.0886509 -0.199884,-0.171695 -0.134772,-0.115755 -0.0264583,-0.0181384 -0.0273885,-0.0104386 -0.310162,-0.053175 -0.0649056,-0.00873332 -0.0294556,-0.0110071 -0.0200505,-0.0222209 0,-0.000103353 -0.000103353,-5.1677e-005 0,-0.000103353 -0.0882633,-0.139113 -0.00816487,-0.0268201 -0.0322461,-0.250941 0.000103352,-0.0166915 0.00392741,-0.0173116 0.0256315,-0.0487309 0.000103353,5.1676e-005 0,-0.000103352 0.0773079,-0.136581 0.010852,-0.0320911 0.00475423,-0.0328145 0.00423747,-0.137511 -0.0054777,-0.0313159 -0.015813,-0.0302307 -0.0337521,-0.0414465 -0.0471732,-0.0579273 0,-0.00015503 -0.000103353,0 -0.000103353,0 -0.0091984,-0.0300757 -0.00878499,-0.0975651 -0.0417546,-0.123507 -0.00981852,-0.0608748 0.000804413,-0.0232386 0.00570682,-0.164864 0.00847494,-0.174718 -0.00227376,-0.0262 -0.00857829,-0.0246497 -0.171669,-0.274143 0,-0.00015503 -0.0359668,-0.0656549 -0.0227376,-0.026665 -0.0292489,-0.0157871 -0.245566,-0.0545703 -0.146658,-0.0735097 -0.110588,-0.0554488 -0.110588,-0.0553713 -0.110588,-0.0553713 -0.0389355,-0.0195132 -0.071652,-0.0359097 -0.110588,-0.0553971 -0.110484,-0.0553713 -0.110691,-0.0553713 -0.110484,-0.055423 -0.110588,-0.0553196 -0.110588,-0.0553971 -0.110588,-0.0553713 -0.110588,-0.0553971 -0.110588,-0.0553971 -0.110588,-0.0554488 -0.110588,-0.0553713 -0.110588,-0.055423 -0.244946,-0.127434 -0.213823,-0.113071 -0.0848668,-0.0448781 -0.17415,-0.0919582 0,-5.1675e-005 -0.127331,-0.0689622 -0.171359,-0.0928109 -0.171359,-0.0926817 -0.0920712,-0.0497817 -0.0793912,-0.0429258 -0.171152,-0.0927334 -0.110691,-0.0598155 0,-5.1676e-005 -0.000206706,0 0,-5.1677e-005 -0.153066,-0.0844393 -0.160714,-0.0932501 -0.0128158,-0.00374654 -0.014056,0.000490927 -0.0638721,0.0142627 -0.0217041,0.000542602 -0.0173633,-0.00868164 -0.0360702,0.0232027 -0.13682,0.0141552 -0.0365028,0.00377653 -0.0162264,0.00860413 -0.0563273,0.00483175 -0.0197404,0.00509013 -0.0147795,0.00710551 -0.0878499,0.0705125 -0.0644922,0.0376463 -0.0325562,0.0276986 -0.0108521,0.00503845 -0.00516764,-0.00139526 -0.0113688,-0.00870748 -0.00496094,-0.00201538 -0.00599447,0.000930176 -0.0103353,0.00341064 -0.00630452,0.000568441 -0.0370003,-0.00423747 -0.0143197,0.000393089 -0.0120353,0.000330381 -0.00361735,0.00072347 -0.000206706,0.00428914 -0.00558106,0.011653 -0.0450618,0.0579034 -0.00940511,0.0167432 -0.00072347,0.0187844 0.00299723,0.0170274 -0.00465088,0.0113688 -0.0233577,0.00152446 -0.0144694,-0.00224793 -0.0104386,0.00307475 -0.00878499,0.00700216 -0.00909505,0.00956014 0.0037207,-0.000465088 0.00320394,0.00408244 0.00134359,0.00648539 -0.00155029,0.00666626 -0.00382406,0.00173116 -0.0129191,-0.00012919 -0.00496094,0.00139526 -0.0172599,0.0148053 -0.00950846,0.00470256 -0.107487,0.0211357 -0.00919841,0.0098702 0,7.7516e-005 0.000103353,0.000103353 0,5.1675e-005 -0.00423747,0.00276469 -0.00516764,0.000775146 -0.00589111,-0.0010852 -0.00625206,-0.00262183 0.0266126,0.0336019 0.0500228,0.0499969 0.00764811,0.0256315 -0.00382406,0.012454 0.0116789,0.0297915 0.0171566,0.0249597 0.00713135,0.00155029 0.014056,0.0226084 -0.0234611,0.0327887 -0.00558105,0.0124799 -0.0132292,0.0952138 0.00310059,0.013255 -0.0374137,0.0132292 0,0.014857 0.0109554,0.0148053 0.0109554,0.0195595 -0.00320394,0.0288613 -0.0225309,0.0117306 -0.00403076,0.0467413 -0.0280086,0.0164331 -0.00702799,0.00780314 0.0334863,0.0397909 -0.0382406,0.0219108 0.0219108,0.00847494 0.00775146,0.00705383 0.0164331,0.0101027 0.00237712,0.0133325 0.00310059,0.00550354 0.00155029,0.0163298 0.0054777,0.00617533 -0.00134359,0.00534851 0.0240162,0.0120208 0.0249731,0.0124997 0.0183968,0.00917257 0.0310059,0.0219366 0.0159163,0.0319102 -0.0135392,0.0203088 0.0113688,0.013255 0.0235645,0.00638204 0.0234611,-0.000258381 0.0190169,0.00731221 0.0205672,0.0113688 0.0153996,0.015167 0.00320394,0.0185518 -0.00878499,0.0112913 -0.0167432,0.010387 -0.0183968,0.00767395 -0.0142627,0.00330729 -0.0233577,0.0109296 -0.0221175,0.00346232 -0.0132292,0.0068988 0.00382406,0.0213682 0.00403076,0.00341064 0.0130225,0.00413411 0.00475423,0.00387573 0.00268718,0.00961182 -0.00289388,0.0181384 0.00144694,0.00837158 0.00744141,0.00891419 0.0182935,0.0140302 0.00609782,0.0113947 0.0137459,0.0171566 0.0330729,0.0235903 0.0134359,0.0213165 0.00992188,0.0108262 0.0160197,0.00555522 0.0186035,0.0040566 0.0173633,0.00622701 0.0358634,0.0183451 0.00661458,-0.00320394 0.0127124,-0.0133584 0.00806152,-0.00426331 0.0208773,0.000413411 0.016123,0.00808736 0.0139526,0.00945679 0.0151929,0.00478007 0.0173633,-0.00279053 0.0513664,-0.0210581 0.0377238,-0.00749308 0.0192236,0.00258382 0.0120923,0.0132292 -0.00196371,0.0205414 -0.0172599,0.00886251 -0.0392741,0.00558105 -0.0294556,0.0191203 -0.00630452,0.00609782 -0.00640788,0.00956014 -0.001757,0.00361735 0.021394,0.0361218 0.0137459,0.01788 0.0157096,0.016123 0.0397909,0.0290422 0.0332796,0.0351658 0.021084,0.00891419 0.0114722,-0.000826823 0.0214974,-0.00666626 0.0137459,0.00056844 0.0163298,0.00679545 0.0054777,0.00925008 0.0019637,0.0117564 0.00578776,0.0141335 0.0195337,0.0205414 0.0447518,0.0318068 0.023151,0.0322719 0.0282153,0.0258382 -0.000547305,0.000998591 -0.00534381,0.00975011 -0.0241846,0.0198954 -0.00651123,0.0143919 -0.00475423,0.0188102 0.00754476,0.0129191 0.00961182,0.0110329 0.00206706,0.0129966 -0.00516764,0.0077773 -0.00651123,0.00129191 -0.00733805,-0.000465088 -0.00713135,0.00258382 -0.0106453,0.00963765 -0.0216007,0.0251664 -0.00496094,0.00775146 -0.00268717,0.00800985 0.000826823,0.00821655 0.00320394,0.00519348 0.00361735,0.00472839 0.00268718,0.0068988 0.003514,0.0164073 0.000826822,0.0110846 -0.0054777,0.00875915 -0.0159163,0.00948263 -0.00733805,-0.00211873 -0.0072347,0.00395325 -0.0144694,0.0148828 -0.0169499,0.00609782 -0.0134359,0.00930176 -0.00992187,0.0129191 -0.00640788,0.0167173 0,0.00015503 -0.0137459,0.00400492 -0.0273885,0.00180868 -0.0292489,-0.00111104 -0.0194303,-0.00485759 -0.00268717,-0.000697632 -0.00279053,-0.000180867 -0.00279053,0.000180867 -0.00268717,0.000697632 -0.00284533,0.00442861 -0.00997043,0.0155185 0.0167432,0.0147278 0.0273885,0.0122473 0.0195337,0.0127124 0.00454753,0.0157096 -0.00124023,0.0147278 0.00206706,0.0119889 0.0147795,0.00759643 0.0147795,-0.003514 0.0106453,-0.00713135 0.00713135,0.00465088 0.00392741,0.0315226 -0.0241846,-0.00645955 -0.0248047,-0.000413413 -0.0236678,0.00671794 -0.0201538,0.0149345 -0.0235645,0.0353467 -0.0148828,0.00806152 -0.0207739,-0.0119889 -0.00330729,-0.00764811 -0.000413411,-0.0195854 -0.0037207,-0.00919841 -0.00919841,-0.00816488 -0.00992187,-0.0037207 -0.0603581,-0.00279053 -0.00609782,0.001757 -0.0117822,0.00728638 -0.00506429,0.00180867 -0.00609782,-0.00124023 -0.0119889,-0.00599447 -0.00434082,-0.00113688 -0.0437199,0.00260081 -0.0249064,0.00148163 -0.0264583,-0.00310059 -0.022841,0.000516765 -0.0217041,0.00521932 -0.0174666,0.0117305 -0.00733805,0.0028422 -0.00878499,0.00201538 -0.0127408,-0.000388574 -0.00423149,0.0185941 -0.0182292,0.0310872 -0.00651042,0.0266927 -0.00976562,0.0147298 -0.00219727,0.00887044 0,0.0408936 -0.00292969,0.00622559 -0.0175781,0.024821 -0.00390625,0.0100098 -0.00545247,0.0209961 -0.0322266,0.0714518 0.00602213,0.00268555 0.000651042,0.00472005 0.00602214,0.00642904 0.00179036,0.00691732 -0.00179036,0.00691732 -0.00602214,0.00642904 0,0.00683594 0.00504557,0.00439453 0.000325521,0.000610351 -0.00227865,0.00150553 -0.00309245,0.00716146 0.00805664,0.0140381 0.00577799,0.00732422 0.00797526,0.0065918 0.00520833,0.0151367 -0.00325521,0.0146484 -0.00585938,0.013387 -0.00358073,0.0113932 0,0.0478516 0.00634766,0.0118815 0.0470378,0.0594889 0.0211589,0.0173747 -0.00911458,0.0268555 -0.0380046,0.0631104 0.0136719,0.0335693 -0.00488281,0.0170492 -0.0074056,0.0647786 0.00227864,0.0143636 -0.0100911,0.00805664 -0.0482585,0.0533447 -0.0205078,0.00830078 -0.0100098,0.00610352 -0.00423177,0.009847 -0.00748698,0.00561523 -0.0161133,-0.00203451 -0.0154622,-0.00472005 -0.00553385,-0.00260417 -0.0107422,0.00463867 0.00146484,0.0112305 0.00512695,0.0136719 0.000976563,0.0120443 -0.00610352,0.00516764 -0.0349121,0.0153402 0.00170898,0.0049235 0.00211589,0.0098877 0.00244141,0.00561523 -0.00626628,0 -0.0136719,-0.0061849 0,0.0061849 0.0200195,0.00585937 0.0199382,0.0103353 0.0151367,0.014445 0.00585938,0.0178223 -0.00227865,0.0111898 -0.00887044,0.0137126 -0.00203451,0.0123291 0.00545247,0.00732422 0.0234375,0.00634766 0.0384928,0.0606283 0.00179036,0.00537109 -0.00024414,0.0233561 -0.00415039,0.019165 -0.0105794,0.0234782 -0.0135091,0.021932 -0.013265,0.0142822 0.0482585,-0.00244141 0.0240072,0.00455729 0.0101725,0.0148926 0.00423177,0.0192871 0.0260409,0.031778 0.00952999,-0.00262887 0.0197404,0.00325562 0.0201538,0.00599447 0.0195337,0.00248047 0.0125057,-0.0115755 0.000310058,-0.0129191 -0.00299723,-0.0130741 0.00227376,-0.0119373 0.0115755,-0.00816488 0.0155029,-0.00299723 0.0313159,-0.000775147 0.0295589,-0.0112138 0.0581877,-0.0344165 0.016811,0.0024535 0.00230926,0.000337028 0.0111621,0.0295072 0.00609782,0.07059 0.0220142,0.0290422 0.0321427,0.00945679 0.0240812,-0.00552938 0.0159163,0.00310059 0.00837158,0.0352433 0,5.1676e-005 0.000103353,0.00015503 0,5.1676e-005 0.0198437,0.00651123 0.0393774,-0.0125057 0.0212907,0.00573609 -0.00248047,0.028422 0.00310059,0.144591 0.00186035,0.0146761 0.00578776,0.00754476 0.00816488,0.00666626 0.00134359,0.00862996 -0.014366,0.0136426 0.0115755,0.00945679 0.012609,-0.012144 0.0125057,-0.0072347 0.0137459,-0.00377238 0.0273885,-0.00304891 0.00599447,-0.00149862 0.0054777,0 0.00847493,0.00320394 0.00475423,0.00568441 0.00134359,0.00713135 0.00361735,0.00645955 0.0112655,0.00315226 0.0183968,0.00232544 0.075861,-0.00950846 0.0190169,-0.000258382 0.0707967,0.0109037 0.00578776,0.00831991 -0.000930176,0.0225309 -0.00361735,0.0141593 -0.00702799,0.0164848 -0.00970364,0.0152194 -0.000114881,0.000180182 -0.0115755,0.0109037 -0.0163298,0.00521932 -0.0329696,0.00279053 -0.0101286,0.00806152 0.00454753,0.000206706 0.00558106,0.00904338 0.00651123,0.0149862 0.000206706,0.00883667 -0.00113688,0.00754476 -0.00279053,0.00687297 -0.00485759,0.00666626 -0.00485758,0.0028422 -0.015813,0.00573608 -0.007028,0.00501261 -0.005271,0.00754476 -0.0189136,0.0543119 -0.00258382,0.0165365 0.00423747,0.0149862 0.029869,0.0384989 0.00465088,0.0432015 -0.00072347,0.0444417 0.0135392,0.0422713 0.0118856,0.0234094 0.00341064,0.019637 0.000826823,0.019327 0.00434082,0.0221692 0.0124023,0.019637 0.0163298,0.017725 0.0112655,0.019327 -0.00341064,0.024443 0.00930176,0.000465088 0.00940511,-0.00103353 0.000994469,-0.000277629 0.184111,-0.0513988 0.0631486,-0.00325562 0.0191203,-0.00361735 0.0199471,-0.00630452 0.0188102,-0.00883667 0.0153996,-0.0115755 0.0304891,-0.0227376 0.00785482,-0.0128674 0.00103353,-0.0208256 -0.00868164,-0.0320911 0.0037207,-0.0114722 0.0188102,-0.0135392 0.0197404,-0.00878499 0.00930176,0.00217041 0.00775146,0.00940511 0.0155029,0.0126607 0.0188102,0.00682129 0.0165365,-0.0010852 0.0164331,-0.00403076 0.0187069,-0.0019637 0.063562,0.0132292 0.0222209,0.00144694 0.162574,-0.0241329 0.0416512,-0.000258383 0.147278,0.0763261 0.0606681,0.0216007 0.165675,0.028422 0.1603,0.0591178 0.0279053,0.00609782 0.018062,0.00924197 0.0969697,0.0496175 0.067076,0.0209031 0.0342098,0.00286804 0.0656291,-0.0066921 0.190066,-0.0459662 0.0494027,-0.0220142 0.105833,-0.0896824 0.0289388,-0.0245226 0.0608748,-0.0255798 0.0703833,-0.00728638 0.162574,0.00625285 0.0220142,0.005271 0.0521932,0.00299723 0.153686,-0.0416512 0.0537435,0.001757 0.202108,0.0310951 0.323544,0.0497785 0.214561,0.0648022 0.0994255,0.0479041 0.0359668,0.0098702 0.0375171,0.00563273 0.0374137,0.014056 0.0712735,0.0383683 0.132332,0.0712374 0.0201538,0.00999939 0.0212907,0.00658874 0.0218075,0.003514 0.022841,0.00103353 0.0458887,0.0107229 0.133739,0.0593762 0.049506,0.0152187 0.187482,0.0222209 0.238642,-0.0384473 0.0446484,-0.0146244 0.0216007,-0.00465088 0.278433,0.0105937 0.416592,0.0787159 0.112884,0.0213297 0.0437183,0.0210323 0.0753442,0.0566374 0.0502295,0.05302 0.0144694,0.00692464 0.0181901,0.0116789 0.0113688,-0.0109554 0.00124023,-0.0115755 -0.00165365,-0.00997355 0.00103353,-0.0042633 0.0136426,-0.00183451 z "/>
</g></g></svg>