<?xml version="1.0" encoding="UTF-8" standalone="no"?>
<!DOCTYPE svg PUBLIC "-//W3C//DTD SVG 1.1//EN" "http://www.w3.org/Graphics/SVG/1.1/DTD/svg11-flat.dtd"
[

]>
<svg xmlns="http://www.w3.org/2000/svg"  viewBox="-0.0510537 -0.0510537 4.18641 7.2184"><g fill="none" stroke="black" stroke-width="0.000510537" transform="translate(0,7.1163) scale(1, -1)">
<g id="tunisia" >
<path d="M 2.38134,7.08745 l 0.000488282,-0.045166 -0.0309245,-0.0199788 -0.0380046,-0.0131836 -0.0209147,-0.0246989 0.00325521,-0.00752767 0.015625,-0.0273844 0.00496419,-0.00606283 0.00585938,-0.00321452 0.00626628,-0.0141195 0.00813802,-0.00317383 0.0437826,-0.00480143 0.0201823,0.00305176 0.0222168,0.0147705 0.012207,0.0134277 0.0109863,0.0184733 -0.000325521,0.0163574 -0.0638021,0.0207113 -0.00960286,-0.000976562 -0.0205078,-0.00512695 -0.0114746,-0.000122071 0,0.00622559 0.0243327,0.0136312 0.00960287,0.00203451 0.00610352,0.00463867 0.00431315,0.00488281 0.00349935,0.00268555 0.0150553,0.00187175 0.0973307,-0.0175374 0.017985,0.00142415 0.0534668,0.0191243 0.00854492,-0.00174967 0.0160319,-0.0198975 0.0703939,-0.00842285 0.0324707,-0.0238037 0.0743815,-0.0213216 0.019043,-0.0128581 -0.0320638,-0.00675456 -0.0148112,-0.00504557 -0.0139974,-0.00805664 -0.00545247,0.0164388 -0.027832,0.00284831 -0.0319824,-0.00675456 -0.0179036,-0.0125326 0.00732422,-0.0163574 0.0262044,-0.00797526 0.0302734,-0.00109863 0.0193685,0.00435384 0.00691732,-0.00866699 0.00887044,-0.0112712 0.00325521,-0.00956217 -0.00594076,-0.0121663 -0.00683594,0.0143636 -0.0432129,-0.0340576 0.00805664,-0.0491943 0.037679,-0.050415 0.0458171,-0.0377197 0.0373535,-0.0145264 0.010498,-0.00594076 0.0232747,-0.0266113 0.0101725,-0.011556 -0.00520833,-0.0116781 -0.0229492,-0.0183512 -0.00968424,-0.0204671 -0.010498,-0.00801595 -0.0136719,-0.00179037 -0.0130208,0.00911458 0.0074056,0.0152181 -0.00935872,0.00415039 -0.0172526,-0.00211589 -0.0324707,-0.00854492 -0.00976562,-0.00594076 -0.0170898,-0.0195313 -0.00512695,-0.0147298 0.0144043,-0.00496419 0.0313314,-0.000732422 0.0130208,-0.00561523 0.00667318,0.00516764 0.00309245,0.00240072 0.0151367,0.0222168 0.0214844,-0.0383301 0.0264486,-0.0289714 0.0352376,-0.0175781 0.0476888,-0.00447591 0.0137533,0.00284831 0.0202367,-0.000720225 0.0507319,0.0208121 0.0309862,0.00614518 0.0195194,0.0162292 0.00781708,0.0278952 0.00654851,0.0229995 0.0143067,0.040306 0.0180664,0.0129395 0.0211589,0.00354004 0.0464681,-0.00280762 0.0420736,0.00655111 0.0387936,0.0123626 0.0497394,0.0286057 0.0307704,0.0259669 0.00911458,0.00354004 0.00382487,0.00927734 0.00317383,0.00504557 0.0574544,0.0377604 0.00830078,0.00809733 0.00260417,0.0111084 -0.00374349,0.00695801 -0.00179036,0.00646973 0.00919596,0.0101725 0.0215658,0.0082194 0.0504557,0.00423177 0.0385742,0.0235189 0.0206706,0.00268555 0.0176595,-0.00716146 0.00927734,-0.0178223 -0.00138346,-0.00858561 -0.0103353,-0.0119222 -0.00252279,-0.0105387 0.00227865,-0.0111084 0.00976563,-0.0143229 0.00219727,-0.00899251 0.00366211,-0.00695801 0.017334,-0.0206706 0.00642904,-0.00996907 0.00236003,-0.00980632 0.00170898,-0.021403 0.00268555,-0.00976563 0.00463867,-0.00785319 0.00683594,-0.00899251 0.00716146,-0.00736491 0.00528971,-0.00305176 0.00585938,-0.00549316 0.0119484,-0.0151574 -0.00568143,-0.0164913 -0.0137782,-0.0156269 -0.0400317,-0.0132235 -0.0545957,-0.0369123 -0.0295917,-0.0442116 -0.042618,-0.0501867 -0.0704105,-0.105403 -0.053857,-0.108664 -0.0257338,-0.0279255 -0.082775,-0.017334 -0.0967126,-0.0442708 -0.0348765,0.00785162 -0.0346361,-0.0208762 -0.0318432,-0.0397833 -0.0142402,-0.0381177 -0.013777,-0.0412891 -0.011801,-0.0411036 -0.00241119,-0.0514401 -0.00216083,-0.0530359 0.00483266,-0.0331587 0.0128659,-0.0339865 0.0074544,-0.0180517 0.00488281,-0.00634766 0.00439453,-0.00976563 0.00569661,-0.0220947 0.00374349,-0.00911458 0.0219727,-0.0271403 0.0159505,-0.0148519 0.0138346,-0.00638835 0.0119629,-0.00976562 0.0262858,-0.0659587 0.0135091,-0.013265 0.0692546,-0.0529785 0.00236003,-0.00183105 0.0193685,-0.00854492 0.0305557,-0.00957018 0.0601019,0.0172606 0.0100911,-0.00195313 0.00927734,-0.0045166 0.0183304,-0.0139153 -0.0110807,-0.0133141 -0.00581734,-0.0198444 0.0050781,-0.0202683 0.011556,-0.0143229 0.0403646,-0.0157878 0.0902949,-0.028872 0.0401576,0.00376625 0.0290245,-0.020174 0.0140236,-0.0232541 -0.0379212,-0.0121953 -0.00512695,-0.0232341 0.00195312,-0.016154 0.000976562,-0.00773112 0.0090332,-0.021403 0.0152995,-0.0152588 0.0458215,-0.0117146 -0.0273677,-0.0200519 -0.00702372,-0.0269517 -0.0051357,-0.0250271 0.00388187,-0.0434994 -0.0122244,-0.0204339 0.00504489,-0.036386 0.0236579,-0.031167 0.0354384,-0.0364366 0.020752,-0.0131836 0.025023,-0.00964278 0.0136778,-0.00577326 -0.00162216,-0.0194751 -0.0278074,-0.000798044 -0.0197744,-0.0123644 -0.0192622,-0.0316559 -0.0294033,-0.0202999 -0.0140819,-0.0224156 -0.01384,-0.0241678 -0.0191105,-0.0142147 0.00657279,-0.0283386 -0.00434729,-0.0303114 -0.0337392,-0.0347769 -0.038503,-0.0158828 -0.0282091,-0.026107 0.00729729,-0.0233022 -0.00843662,-0.0208058 -0.000178878,-0.039747 -0.0408367,-0.0245027 -0.00878906,-0.0078125 -0.00634766,-0.00443522 -0.00406901,-0.00594076 0.0110645,-0.0198449 0.00406337,-0.0136662 -0.0365361,-0.0139688 -0.0236226,-0.014518 -0.0322202,-0.0293787 -0.0155732,-0.0260532 -0.0194804,-0.0147723 -0.00927734,-0.0178223 -0.0174154,-0.0161133 -0.0161133,-0.00878906 -0.0668945,-0.0180664 -0.0090332,-0.00463867 -0.00382487,-0.00695801 -0.00154622,-0.0104167 -0.00488281,-0.0122884 -0.00756836,-0.0102539 -0.00172295,-0.0196609 -0.0069577,-0.0112148 -0.00172857,-0.0177402 -0.0154087,-0.0120341 -0.0222382,-0.00918867 -0.0933827,-0.0115415 -0.0340983,-0.015625 -0.0531718,-0.0732436 -0.0483094,-0.0104966 -0.00992839,0.000651042 -0.00919596,0.00358073 -0.0112305,0.000895182 -0.0119629,-0.0037028 -0.00610352,-0.00512695 -0.00398763,-0.00614421 -0.021403,-0.023641 -0.00935872,-0.00695801 -0.0130208,-0.00280762 -0.0474447,-0.0173747 -0.0201009,-0.0131429 -0.0399577,-0.0131836 -0.0245582,-0.021554 -0.012383,-0.0311004 -0.0357446,-0.0598113 -0.0212567,-0.0285083 -0.0139677,-0.00408617 -0.00854492,-0.0074056 -0.00016276,-8.138e-005 -0.00488281,-0.00244141 0.0094401,-0.0172526 0.00374349,-0.0198975 -0.00016276,-0.0419515 0.00325521,-0.0182292 0.0146484,-0.0388184 0.00317383,-0.0183919 0.00952148,-0.0326335 0.0224609,-0.0372314 0.0917969,-0.109985 0.00960286,-0.00817871 0.0141602,-0.00630697 0.143392,-0.118937 0.0374349,-0.0187581 0.0783691,-0.0286458 0.0141602,-0.00272624 0.0290527,-0.00557454 0.0691044,0.00859963 0.0756989,0.0179065 0.0635467,0.0289691 0.0190263,0.0043392 0.0233472,-0.0353575 -0.00306837,-0.0687281 -0.0293935,-0.0211585 -0.0161133,-0.00557454 -0.0123698,-0.0135498 -0.00496419,-0.0169678 0.00585937,-0.0157471 0.0236816,-0.0338135 0.0135091,-0.0124919 0.0209961,-0.00553385 0.0423991,0.00773112 0.0756836,0.0385742 0.0360514,0.00895182 0.0171712,0.00634766 0.0157064,0.0154622 0.00764974,0.0189616 -0.00651042,0.0172119 -0.0170898,0.0166016 -0.00268555,0.00858561 0.0297038,0.0198568 0.0117188,-0.00683594 0.0126953,-0.00179036 0.0108236,0.00423177 0.00642904,0.0112305 0.00675456,0 0.0160319,-0.00895182 0.0421549,-0.0163167 0.0174967,-0.00952148 0.013265,-0.0138753 0.0345866,-0.0448405 0.00341797,-0.00960287 0.0050383,-0.0500523 -0.0266918,-0.0358241 0.0208541,-0.0611782 -0.00870975,-0.0288896 0.0290405,0.00744654 0.0197754,-0.0175781 0.0197754,-0.0221761 0.0231934,-0.0107829 0.0239258,-0.00467936 0.0512695,-0.022054 0.0246582,-0.00744629 -0.00634766,-0.00476074 -0.00292969,-0.0012207 -0.00439453,-0.000813802 -0.0981445,0.0267741 -0.0482585,0.00463867 -0.0118001,-0.0314128 0.00968424,-0.0119629 0.0161947,-0.0111491 0.015625,-0.0142822 0.00683594,-0.0216064 0.00935872,-0.00992839 0.0219727,8.138e-005 0.0438639,0.00675456 0.0424805,-0.0078125 0.0843913,-0.0263265 0.044515,0 0.0163574,0.00976563 -0.00553386,0.0134684 -0.0169271,0.0119222 -0.0179036,0.00516764 -0.0113932,0.0065918 -0.013916,0.0145671 -0.0155436,0.0135905 0.0904948,-0.0541992 0.0554199,-0.0219727 0.00675456,-0.00134277 0.000543898,-0.000116549 0.000934787,-0.0448489 -0.0286287,-0.0951621 -0.00248047,-0.0153737 -0.000516765,-0.0559656 -0.01788,-0.0677736 0.0072347,-0.103637 -0.0145728,-0.105446 0.000723471,-0.0550612 0.0204639,-0.0386798 0.0669727,-0.0557589 0.0232544,-0.035941 0.003514,-0.0420905 -0.0177767,-0.0312126 -0.0202688,-0.0164119 -0.012184,-0.00986557 -0.0698665,-0.0395066 -0.261694,-0.106267 -0.309124,-0.125528 -0.0272852,-0.024908 -0.0403076,-0.0794267 -0.0327629,-0.0278536 -0.0362769,-0.0191203 -0.0334863,-0.0232027 -0.0195337,-0.00516764 -0.0182935,0.00620117 -0.0179834,0.00873332 -0.0188102,0.00217041 -0.0225309,-0.0205155 -0.00837158,-0.0800985 -0.0130225,-0.0332279 -0.042168,-0.0336414 -0.0168465,-0.0345715 -0.0119889,-0.0150378 -0.0146761,-0.0127124 -0.0163298,-0.0112138 -0.054777,-0.0185002 -0.112345,0.00124023 -0.0514697,-0.0353467 -0.0674894,-0.101906 -0.0638721,-0.0610299 -0.0157096,-0.023151 -0.0106453,-0.0652157 0.00186035,-0.0173633 0.0746208,-0.171049 0.0304891,-0.10542 0.031626,-0.0572058 0.00134359,-0.0186035 -0.00558106,-0.0383956 0.00444417,-0.03545 0.0251147,-0.0700732 -0.000413412,-0.0334863 -0.015813,-0.0403593 -0.0617017,-0.110536 -0.0910539,-0.0895553 -0.105523,-0.147174 -0.124333,-0.139371 -0.0255282,-0.0128674 -0.0728638,-0.00418579 -0.0294556,-0.00676961 -0.223759,-0.102423 -0.0283187,0.110071 -0.0283187,0.110071 -0.0283187,0.110019 -0.028422,0.110019 -0.028422,0.110071 -0.0283187,0.110019 -0.0283187,0.110071 -0.0283187,0.110071 -0.0285254,0.110019 -0.0282153,0.110071 -0.028422,0.110019 -0.0283187,0.110071 -0.0283187,0.110071 -0.028422,0.109967 -0.0282153,0.110071 -0.0285254,0.110071 -0.00268499,0.0105151 -0.0182956,0.0716504 -0.0112655,0.0189136 -0.0138493,0.0141077 -0.168362,0.103379 -0.209186,0.128416 -0.15968,0.0981335 -0.12268,0.0662233 -0.0273581,0.0253407 -0.00137398,0.00127267 -0.0116789,0.0329696 -0.00961182,0.103275 -0.0135392,0.140534 -0.0135392,0.0319619 -0.101493,0.133454 -0.0945679,0.124463 -0.0223242,0.011498 -0.0208773,-0.00395325 -0.0209806,0.0012144 -0.0204639,0.00532267 -0.0194303,0.0084491 -0.110794,0.0673086 -0.0364836,0.0104128 -0.0479557,0.00377238 -0.0367936,0.00935343 -0.0257349,0.0237453 -0.0152962,0.0467413 -0.00140294,0.132553 -4.3995e-005,0.00415675 -0.0150895,0.0392483 -0.0765845,0.111854 -0.063562,0.092785 -0.00857829,0.0255023 -0.0102319,0.0519865 -0.0287321,0.0466121 -0.00692464,0.0171307 -0.0136426,0.0550354 -0.00506429,0.0388865 0.0207739,0.100356 0.00310059,0.0737164 0.0137459,0.0270526 0.0217754,0.0187319 0.0403397,0.0347015 0.0244946,0.0270268 0.0273885,0.0236161 0.0388607,0.0162006 0.063562,0.00847494 0.0189136,0.00837158 0.0125057,0.0125574 0.0089917,0.0162522 0.0376204,0.118313 0.019637,0.0351141 0.0390674,0.0235128 0.0867131,0.0315226 0.0417546,0.024753 0.0949813,0.0359668 0.00842469,0.00621321 0.0411847,0.0303737 0.0235645,0.0118339 0.00795817,0.00671794 0.00434082,0.00687297 0.007028,0.017415 0.00630452,0.00816488 0.0359668,0.0187069 0.00764811,0.0112138 -0.0258382,0.033538 0.00279053,0.0155546 0.0117822,0.0149345 0.0321427,0.0280603 0.00135846,0.00155689 0.00783994,0.0089851 0.00279053,0.0135909 -0.0186035,0.100872 -0.00186035,0.037207 0.0101286,0.0387056 0.0238745,0.0533818 0.01757,0.0736389 0.0132292,0.0353984 0.0472323,0.0428398 0.0604614,0.0761711 0.00992188,0.019637 -0.0344165,0.0219625 -0.0416512,0.0106453 -0.0378271,0.0151412 -0.0230477,0.0356051 -0.00640788,0.0409794 0.00206706,0.0365352 0.0108521,0.0348816 0.0358634,0.0709001 0.000310059,0.0295589 -0.00981558,0.0834701 -0.0036203,0.0307864 -0.0170532,0.0327112 -0.0488859,0.0654224 -0.0118856,0.0349849 -0.00434082,0.0424264 0.00578776,0.0795817 0.021196,0.0625455 0.00402211,0.0118685 0.00320394,0.0550871 0.021084,0.0735872 0.0112655,0.0165881 0.00909505,0.0189136 -0.00258382,0.0180351 -0.00744141,0.0185518 -0.00475423,0.0198437 0.00475423,0.0412895 0.0473356,0.10728 0.00101878,0.00520707 0.00270193,0.0138099 0.00155029,0.0412895 -0.0019637,0.019172 -0.00847493,0.0183968 -0.0153996,0.00759644 -0.0189136,0.00423747 -0.019327,0.00806152 -0.0868164,0.00914673 -0.0409277,0.0135392 3.7752e-005,0.00062952 0.0020293,0.0338387 0.0235645,0.023151 0.0288354,0.0147795 0.0645955,0.019637 0.121026,0.0592212 0.0224276,0.0199988 0.022841,0.0350366 0.00857829,0.03514 -0.0201538,0.0204122 -0.0349333,0.0147795 0.00640788,0.0159163 0.0309025,0.012299 0.038654,0.00377238 0.0374137,-0.00206706 0.0344165,0.00573608 0.0693498,0.0224276 0.01788,0.0102836 0.000826823,0.012144 -0.0343132,0.0422196 -0.00341064,0.0102578 0.000826822,0.0120664 -0.00314472,0.0264656 3.92464e-005,9.81153e-006 0.0185547,0.00626628 0.0710449,0.0236003 0.0244141,0.0037028 0.0854492,0 0.0223796,0.00638835 0.0413411,0.0281576 0.0302734,0.0112305 0.00764974,0.00280762 0.0221354,0.0172119 0.0310872,0.0303955 0.0307617,0.0475667 0.0133464,0.00712077 0.00976563,0.00386556 0.0279948,0.0240072 0.0105794,0.00512695 0.0301107,0.009847 0.0797526,0.026001 0.012207,0.00598145 0.0209961,0.0273437 0.0183105,0.00769043 0.131836,0.00150553 0.0381673,0.0121257 0.0244141,0.0210368 0.0139974,0.00732422 0.0135091,-0.00443522 0.0102539,-0.00484212 0.0109863,0.00174967 0.0106608,0.00415039 0.0293783,0.00569662 0.0234375,0.00854492 0.0212402,0.0113118 0.0141602,0.0115153 0.0203451,-0.00927734 0.0183919,0.00268555 0.0369466,0.020223 0.0208333,0.00870768 0.0170085,0.00358073 0.0440267,0.000732421 0.0221354,0.00716146 0.012207,0.00187174 0.010498,-0.00528971 0.00805664,-0.00626628 0.0102539,-0.00313314 0.0854492,-0.00170898 0.00016276,-0.00292969 0.00211589,-0.00952148 z M 3.45011,3.6674 l 0.0297852,-0.0301921 0.0317383,-0.0244141 0.0195313,-0.0100911 0.0201009,-0.00773112 0.0174154,-0.00911458 0.0118001,-0.0140381 -0.0663249,-0.0509847 -0.0166829,-0.0065918 -0.00626628,-0.00443522 -0.00455729,-0.00830078 -0.00976562,-0.0326742 -0.00626628,0 0.00317383,0.0264486 0.00309245,0.00830078 -0.015625,-0.00427246 -0.0126069,-0.0315865 -0.0179548,-0.0227515 -0.0168203,-0.0156313 -0.0059237,-0.018106 -0.0167296,0.0141919 -0.000309918,0.0175068 0.00617462,0.0163776 -0.0179261,0.022843 -0.0168616,0.00690216 -0.0159505,0.0118408 -0.0172526,0.0045166 -0.0185807,-0.0157483 -0.00842754,-0.0148758 -0.018502,-0.00353353 -0.0232658,0.015315 -0.00636264,0.0151881 -0.00598731,0.027515 0.000510397,0.0263875 0.0192785,0.0281802 -0.0121133,0.041006 0.000533731,0.0309973 0.0369466,0.011556 0.0812988,-0.0146484 0.0435384,-0.00231934 0.0321452,0.0169678 z M 3.8007,4.53398 l 0.0242673,-0.0205904 -0.00776022,-0.0136013 -0.0973782,-0.0339732 -0.0505607,-0.0254333 -0.0183506,-0.00599543 -0.00843944,0.0171345 0.013849,0.0134619 0.0165312,0.0129897 0.0179599,0.0217149 0.00247313,0.0138405 -0.000867812,0.00636858 0.000773032,0.00920066 0.00792315,0.00377973 0.002168,-0.00959842 0.0150727,-0.00816353 0.0239218,0.00362521 0.00219289,0.0224124 -0.00680171,0.011558 0.00775055,0.0136066 0.0118723,0.00896762 0.00814012,0.0107766 0.00900537,0.0108562 0.0164925,-0.00796526 0.0287216,-0.00367858 0.00468701,-0.00888962 -0.0260844,-0.0076141 -0.00366211,-0.00594075 -0.0061849,-0.00638835 -0.00244141,-0.0119629 0.00905033,-0.0030071 0.00567949,-0.00749095 z M 3.61606,4.41808 l -0.040181,-0.0260184 -0.0192099,0.00334825 -0.0198864,0.00820317 -0.0331134,0.0134037 -0.0193768,0.0107662 0.00971531,0.00632666 0.0133153,0.00876937 0.114176,-0.000813803 0.00951288,-0.0114602 -0.0149525,-0.0125249 z "/>
</g></g></svg>