<?xml version="1.0" encoding="UTF-8" standalone="no"?>
<!DOCTYPE svg PUBLIC "-//W3C//DTD SVG 1.1//EN" "http://www.w3.org/Graphics/SVG/1.1/DTD/svg11-flat.dtd"
[

]>
<svg xmlns="http://www.w3.org/2000/svg"  viewBox="-0.114737 -0.114737 12.224 7.11367"><g fill="none" stroke="black" stroke-width="0.00114737" transform="translate(0,6.88419) scale(1, -1)">
<g id="yemen" >
<path d="M 10.357,4.93682 l 0.0625285,-0.135341 0.0626318,-0.135444 0.062447,-0.135072 -9.27301e-006,-4.59628e-006 -0.000325521,-0.00016276 -0.0208333,-0.0104167 -0.0473633,-0.0123698 -0.0369466,0.00870768 -0.0109863,-0.00984701 -0.0117187,-0.00203451 -0.0116374,-0.000651041 -0.0102539,-0.00545247 -0.0191243,-0.019043 -0.0112305,-0.00805664 -0.0246582,-0.00764974 -0.0341797,-0.0192871 -0.0419922,-0.0078125 -0.0202637,-0.0086263 -0.0367025,-0.021403 -0.0152995,-0.00634766 -0.13916,-0.0352376 -0.0651042,-0.0294596 -0.112142,-0.0760091 -0.101807,-0.0800781 -0.0258789,-0.0273438 -0.013265,-0.0199382 -0.0180664,-0.0349121 -0.0327148,-0.037028 -0.00724284,-0.0110677 -0.00439453,-0.0124919 0,-0.0102946 0.00252279,-0.0121257 0.00309245,-0.00956217 0.00170898,-0.00280762 -0.00756836,-0.0184326 -0.0224609,-0.0248617 -0.0102539,-0.0408529 -0.0240885,-0.0273437 -0.00447591,-0.0182292 0.00789388,-0.0190837 0.0139974,-0.0224202 0.00911458,-0.0232747 -0.0110677,-0.0411784 0.0161133,-0.0149333 0.0327962,-0.0162354 0.000895183,-0.0148112 -0.0082194,-0.0712077 0.00439453,-0.0437419 0.00976562,-0.0422363 0.00708008,-0.00610352 0.00455729,-0.00516764 0.00203451,-0.00577799 -0.00105794,-0.00614421 -0.00528971,-0.0090332 -0.00105794,-0.00500488 -0.000895182,-0.00817871 -0.00301107,-0.00756836 -0.00520833,-0.00565593 -0.00764974,-0.00215657 -0.0217285,-0.0024821 -0.151855,-0.0414632 -0.00838216,-0.00687663 -0.00724284,-0.00732422 -0.00577799,-0.00459798 -0.00878906,-0.00256348 -0.0152995,-0.00138346 -0.00992838,-0.00219727 -0.0786133,-0.0297445 -0.0388997,-0.0238037 0.000813802,-0.0221354 -0.000813802,-0.00435384 -0.00236003,-0.00126139 -0.00244141,0 -0.0012207,-0.000651042 0.000488282,-0.011556 -0.00325521,-0.00146484 -0.00553385,0.00321452 -0.00602213,0.00240072 -0.00732422,0.00382487 -0.0078125,0.00675456 -0.0094401,0.00240072 -0.0126139,-0.00927734 -0.00724284,-0.00366211 -0.0506185,-0.0101318 -0.0788574,-0.0421549 -0.0126953,-0.0120443 -0.00512695,-0.0142822 0.00561523,-0.0194906 0.00878906,-0.0106608 -8.138e-005,-0.00671387 -0.0211589,-0.00752767 -0.105794,-0.00976563 -0.0189616,-0.00614421 -0.0170898,-0.00878906 -0.0151367,-0.0100098 -0.0240072,-0.0273437 -0.0200195,-0.00118001 -0.00773112,-0.00309245 -0.00292969,-0.00622559 -0.0111491,-0.000528971 -0.0504557,-0.0216471 -0.0141602,-0.00830078 -0.0253906,0.00797526 -0.0279948,-0.0109863 -0.0260417,-0.0164388 -0.0196126,-0.00846354 -0.198975,-0.0521647 -0.218506,-0.0397135 -0.18986,-0.0514323 -0.107422,-0.00992839 -0.0945638,-0.0381266 -0.0270996,-0.0150146 -0.0741374,-0.0620931 -0.0152181,-0.00858561 -0.0407715,-0.00728353 -0.058431,-0.0303141 -0.0642904,-0.0438232 -0.0144857,-0.000854492 -0.0187988,0.00732422 -0.024821,-0.00557454 -0.0420736,-0.0185547 -0.0189616,-0.00545247 -0.0086263,-0.00146484 -0.00992838,-0.000488281 -0.00602213,0.0206706 -0.00602214,0.0113525 -0.00878906,-0.00101725 -0.014974,-0.00488281 -0.0638835,-0.00561523 -0.143555,-0.0465902 -0.220459,-0.054891 -0.117676,-0.0637207 -0.0426432,-0.0166423 -0.0454102,-0.00712077 -0.0203451,-0.0100098 -0.0393066,-0.0270182 -0.083903,-0.0375163 -0.0386556,-0.0266927 -0.00830078,-0.0319824 -0.0100098,0.0016683 -0.0151367,0.00785319 -0.019694,0.00655111 -0.0235189,-0.00244141 -0.020752,-0.0106201 -0.0148112,-0.0135091 -0.0498861,-0.0697428 -0.0181478,-0.0352376 -0.00968424,-0.0415446 0.00773112,-0.00512695 0.000569662,-0.0114339 -0.00252279,-0.0118001 -0.00236003,-0.00642904 -0.0121257,-0.00789388 -0.0410156,-0.016276 -0.00887044,-0.00622559 -0.00585937,-0.0239258 -0.0142415,-0.00858561 -0.0180664,-0.00337728 -0.0165202,-0.00817871 -0.00463867,-0.00708008 -0.00195313,-0.0086263 -0.000244141,-0.0225016 -0.00317383,-0.00537109 -0.00708008,-0.00537109 -0.00691732,-0.00671387 -0.0104167,-0.0276693 -0.0172526,-0.0107422 -0.037679,-0.0157878 -0.0593262,-0.0722656 -0.0187988,-0.0109049 -0.00577799,-0.00187174 -0.0118815,-0.00870768 -0.00602214,-0.00309245 -0.00651042,-0.00118001 -0.0078125,0.00118001 -0.116699,0.00244141 -0.0166829,-0.00553385 -0.0446777,-0.0378825 -0.00960287,-0.00366211 -0.00830078,-0.000488281 -0.00797526,-0.00174967 -0.00878906,-0.00777181 -0.0183105,0.0216878 -0.0350749,0.0061849 -0.0771484,-0.000528971 0.00292969,-0.00390625 0.00455729,-0.00976563 -0.0415039,-0.000732422 -0.115479,-0.0327555 0.00488281,0.0242513 -0.0160319,0.0157878 -0.0222982,0.011027 -0.0148926,0.010376 -0.00683594,-0.00744629 -0.0275879,0.0128988 -0.0891113,0.0212402 -0.0152181,-0.00813802 -0.0530599,-0.0157471 -0.0174154,-0.00280762 -0.0138346,-0.00919596 -0.0507813,-0.0597331 -0.0455729,-0.0231934 -0.153727,-0.0512695 -0.0215658,-0.0139974 -0.0814616,-0.0840658 -0.128174,-0.111084 -0.0378418,-0.0231934 -0.231364,-0.0692546 -0.254964,-0.0523275 -0.0876465,-0.0569661 -0.123535,-0.0459798 -0.0168457,-0.00309245 -0.0199382,0.00284831 -0.0356445,0.0107422 -0.0235189,8.1381e-005 -0.0212402,-0.005778 -0.0432943,-0.0182292 -0.0201823,-0.00386556 -0.207031,0.000528972 -0.043457,0.00691732 -0.0217285,0.0116374 -0.013265,0.00423177 -0.00585938,-0.00528971 -0.00455729,-0.00236003 -0.0266113,-0.0082194 -0.0861816,-0.0136719 -0.170736,-0.00744629 -0.0174154,-0.00390625 -0.0327148,-0.0131429 -0.0147298,-0.00284831 -0.0419922,0.00187174 -0.0183105,-0.00179036 -0.0119629,-0.00752767 -0.137695,-0.0300293 -0.0336914,-0.0170898 -0.0961914,-0.0962321 -0.0274251,-0.0199788 -0.0143229,-0.0140381 -0.0126953,-0.0371094 -0.0473633,-0.0592041 -0.0310872,-0.0281982 -0.0377604,-0.0164388 -0.171712,-0.0410156 -0.0394694,-0.0205485 -0.0358887,-0.0303955 -0.0136719,-0.0168457 -0.00504557,-0.00870768 -0.00569661,-0.00992838 -0.000569662,-0.00154622 -0.0065918,-0.0174154 -0.00260417,-0.0178223 -0.00170898,-0.00284831 -0.0235189,-0.0594889 -0.00211589,-0.0100098 0.00537109,-0.040568 -0.00341797,-0.0145264 -0.0192871,-0.00573731 -0.0215658,0.00354004 -0.023112,0.00935872 -0.0152995,0.0131022 0.0016276,0.0150146 0.0164388,0.00614421 0.0203451,-0.00170899 0.0174154,0.00191244 0.00732422,0.0172119 -0.00390625,0.000366211 -0.0152995,0.0198161 -0.00130208,0.00406901 -0.00195312,0.00382487 0.00146484,0.0045166 0,0.0037028 -0.00634766,0.00154622 -0.00585937,-0.0020345 -0.000813802,-0.00443522 0.000813802,-0.00467936 -0.000976563,-0.00244141 -0.00708008,-0.0116374 -0.00317383,-0.00203451 -0.00504557,0.00101725 -0.00935872,0.00467936 -0.00610352,0.00105794 -0.0224609,-0.00113932 -0.010498,-0.00309245 -0.00447591,-0.00594076 -0.0069987,-0.0153809 -0.0163574,-0.0131836 -0.0184733,-0.00325521 -0.0135091,0.0147298 -0.0131836,-0.0074056 -0.00415039,-0.00870768 0.00439453,-0.0248617 0.00756836,0.00646973 0.00602214,0.00154622 0.0308431,-0.00309245 0.00463867,-0.00349935 -0.00195313,-0.0119629 -0.00618489,-0.0112305 -0.0144857,-0.0114339 -0.0169271,-0.00687663 -0.0130208,0.00223796 -0.0287272,0.0113525 -0.00878906,0.00537109 -0.00594075,0.00817871 8.138e-005,0.00459798 -0.00236003,0.00345866 -0.0128581,0.00488281 -0.0245768,0.00231934 -0.0202637,-0.00671387 -0.0371094,-0.0235596 -0.00105794,0.0045166 -0.00382487,0.00581869 -0.00195312,0.00394694 0.00463867,0.0102132 -0.00634766,0.0135905 -0.0123698,0.0135498 -0.013265,0.00980632 -0.0412598,0.0144857 -0.041748,0.0016276 -0.0378418,-0.00797526 -0.0299479,-0.0142822 -0.0528971,-0.0438232 -0.0569661,-0.0598958 -0.00211588,-0.00541178 -0.00732422,-0.012207 -0.00797526,-0.00581868 -0.00374349,0.0138753 -0.00480143,0.0012207 -0.0235189,-0.00891113 -0.0291341,-0.0069987 -0.0647786,-0.0303548 -0.0222168,-0.00219727 -0.0200195,0.00219727 -0.0187988,-0.000325521 -0.0373535,-0.0195312 -0.022054,-0.000976563 -0.019694,0.00683594 -0.0113932,0.0139974 0.0135905,-0.00109863 0.0244954,-0.00463867 0.0138346,-0.00109863 0.00846354,0.00691732 -0.000406901,0.0131836 -0.00683594,0.0082194 -0.0114746,-0.0078125 -0.0262044,0.0032959 -0.0321452,-0.0125732 -0.0590007,-0.0316569 -0.0286458,-0.0074056 -0.0166016,-0.000610352 -0.0253906,0.00842285 -0.0302734,-0.0125326 -0.0151367,-0.00154622 -0.0192057,0.0121257 -0.0176595,0.0351563 -0.0146484,0.00732422 -0.0205892,0.00280762 -0.0164388,0.00708008 -0.0281576,0.0180664 -0.0161133,0.00777181 -0.0187988,0.00651042 -0.0209147,0.0045166 -0.0222982,0.00170899 -0.0136719,0.00463867 -0.0383301,0.0220947 -0.0200195,0.0074056 -0.0354004,-0.000691732 -0.0094401,0.0041097 -0.0152181,0.0109049 -0.00976562,0.00476074 -0.0090332,0.00195313 -0.0128581,-0.0049235 -0.0569661,-0.0558675 -0.00520833,-0.00512695 -0.0138346,-0.00720215 -0.0209961,-0.00256348 -0.0227051,0.0032959 -0.00577799,0.0094401 0.0189616,0.0800781 0.000732422,0.0386556 -0.00878906,0.0345459 -0.0202637,0.0319824 -0.0302734,0.0275879 -0.00390625,0.0102539 -0.00317383,0.0124512 -0.00708008,0.00805664 -0.00708008,0.00646973 -0.00317383,0.00773112 -0.00138346,0.019694 -0.00390625,0.0188395 -0.00651042,0.0175781 -0.00927734,0.0159098 -0.035319,0.0394694 -0.00561523,0.0117594 -0.00146484,0.00777181 -0.012207,0.0236003 -0.00952148,0.025472 -0.00415039,0.00805664 -0.0599772,0.0734049 -0.0225423,0.071167 0.013265,0.03125 0.00870768,0.0338135 0.00594075,0.177612 0.0204264,0.0310465 0.00382487,0.00899251 0.00179036,0.00752767 0.00423177,0.00626628 0.0106608,0.00520833 -0.0131836,0.0315348 0.00333659,0.069458 -0.00439453,0.0355225 -0.0330404,0.0615641 -0.00439453,0.0106608 -0.0103353,0.0820313 -0.00585938,0.00907389 -0.0655888,0.068547 -0.0225239,0.0533581 -0.0211257,0.0451433 -0.0225471,0.0314639 -0.0112666,0.0752313 -0.00846116,0.0355722 -0.00987564,0.0301058 -0.0183537,0.0506425 -0.0285093,0.092846 -0.00805664,0.0200602 -0.00488281,0.0310059 -0.0126139,0.02889 -0.00358073,0.031901 -0.00260417,0.0090332 -0.00561523,0.00553385 -0.0183105,0.0129801 -0.00406901,0.0057373 0.00187174,0.0118815 0.00480143,0.00488281 0.00748698,-0.00179036 0.0101725,-0.00813802 0.010498,-0.0198568 0.0119629,-0.045695 0.0153809,-0.0126953 0.000488281,0.029012 -0.00195313,0.0135091 -0.00602214,0.0121663 0.0146484,0.0412191 -0.0110677,0.0332438 -0.0195312,0.0302734 -0.0107422,0.0323486 0.00219727,0.00720215 0.00927734,0.0102132 0.00219727,0.00590006 -0.00113932,0.00614421 -0.00252279,0.002889 -0.00252279,0.00170899 -0.00431315,0.0121663 -0.00683594,0.00504557 -0.00683594,0.00325521 -0.00301107,0.00349935 -0.00236003,0.00512695 -0.00488281,0.00484212 -0.00488281,0.00671387 -0.00756836,0.0340983 -0.000976562,0.0110677 -0.0109049,0.0351562 -0.0476888,0.0585938 -0.0109049,0.0362142 -0.00203451,0.0209147 0.00170898,0.0109049 0.0078125,-0.00170899 0.00463867,-0.0078125 -0.00170898,-0.00667318 -0.00309245,-0.00789388 0.00016276,-0.0111084 0.00716146,-0.0185547 0.0121257,-0.0203857 0.0161947,-0.0181478 0.019043,-0.0118001 0.00113932,0.014445 0.00634766,0.0333252 -0.000813802,0.0203451 -0.0106608,0.0358073 -0.00439453,0.0331217 -0.00512695,0.0123698 -0.00854492,0.0105794 -0.025472,0.0238444 -0.0109049,0.0129395 -0.00708008,0.0166423 -0.00268555,0.0236816 0.00488281,0.0539551 -0.00488281,0.0173747 -0.0134277,0.0165609 -0.0350749,0.0153402 -0.0320638,0.0269368 -0.0201823,0.0126953 -0.0219727,0.0104167 -0.0213216,0.00748698 -0.0221354,0.00496419 -0.0198568,0 -0.0144857,-0.00846354 -0.00553385,-0.0204264 -0.0109863,-0.00280762 -0.0227051,0.00830078 -0.019694,0.0166423 -0.00130208,0.0222168 -0.0065918,0.0138753 0.0112305,0.00109863 0.0332845,-0.00748698 0.0170898,0.00244141 0.0109049,0.00683594 0.00610352,0.0105387 0.00317383,0.0136719 -0.000976562,0.0105387 -0.0102539,0.0148112 -0.00244141,0.0122477 0.0260417,0.0471598 0.00813802,0.0108236 0.00520833,-0.0128174 -0.00252279,-0.0164795 -0.00724284,-0.0154622 -0.00846354,-0.00984701 0.0191243,-0.00854492 0.0152181,-0.00923665 0.0405273,-0.0334473 0.00488281,-0.00712077 0.00211589,-0.0130208 -0.00268555,-0.0186768 0.00341797,-0.00655111 0.0129395,-0.00577799 0.000976562,0.00805664 -0.00130208,0.00524902 -0.00292969,0.0037028 -0.00358073,0.00341797 0.014974,0.0154622 0.00602214,0.022583 -0.00219727,0.0765381 -0.00952148,0.0354004 -0.0161133,0.0281982 -0.00406901,0.0140381 0.000488282,0.0108643 0.00227865,0.010376 0.00130208,0.0125326 -0.000732422,0.0117594 -0.00219727,0.0115153 -0.00406901,0.0120443 -0.0143229,0.0250244 -0.0406901,0.0539551 0.00211589,0.00817871 0.0120443,0.0140381 -0.00952148,0.00996907 -0.0090332,0.0117594 -0.0065918,0.0138753 -0.00268555,0.0165202 0.010498,0.0354818 -0.00244141,0.0148926 -0.0217285,0.00736491 0.00732422,0.0153402 0.0100098,0.00846354 0.0118001,0.00691732 0.0123698,0.0102539 0.00830078,0.0101725 0.00406901,0.00870768 0.00113932,0.0107015 0.000325521,0.0157471 0.00520833,0.0279948 0.0133464,0.0193685 0.0176595,0.0136719 0.0183105,0.0109049 0.0182292,0.0146077 0.0103353,0.0175781 0.00447591,0.0228271 0.00846354,0.136841 -0.00317383,0.0456136 -0.0273437,0.140462 -0.00390625,0.0743815 -0.0012207,0.00691732 -0.00585937,0.0205892 0.000813802,-0.000732422 0.000488282,0.00292969 -8.138e-005,0.00500488 -0.0012207,0.00585937 -0.00292969,0.00524902 -0.00813802,0.0101725 -0.00121383,0.00230627 0.0478256,0.0162732 0.03514,0.0144177 0.0257349,0.0172599 0.00857829,0.0160197 -0.00113688,0.0161747 -0.00268718,0.0151929 0.00382406,0.0130741 0.0106453,0.00444417 0.0388607,0.00692464 0.0146761,0.00506429 0.0437183,0.024908 0.0216007,0.0156063 0.0125057,0.0171566 0.0258382,0.065319 0.00403076,0.0189136 0.00134359,0.0211357 0.00496094,0.0137459 0.0128158,0.00521932 0.0250114,-0.00449585 0.0401526,-0.0117822 0.0170532,0.00310059 0.00609782,0.0186552 -0.000397791,0.00157486 -0.00590673,0.0233849 -0.00909505,0.0152445 -0.00217041,0.0137459 0.014366,0.0207739 0.0089917,0.00625285 0.00919841,0.00387573 0.00754476,0.005271 0.00423747,0.0104903 -0.00134359,0.0129708 -0.00676961,0.0108521 -0.0102836,0.00775146 -0.0371037,0.00992187 -0.0115238,0.00909505 -0.0120923,0.0365352 -0.021084,0.0390157 -0.00392741,0.0169499 0.00671794,0.0248564 0.016123,0.0386023 0.00434082,0.019172 0.000103353,0.0218075 -0.00568441,0.0220658 -0.00785482,0.0166398 -0.00403076,0.016123 0.00589111,0.0207222 0.0209806,0.0395841 0.00568441,0.0203088 -0.000930176,0.0230994 0.00609782,0.0197404 0.0207222,0.015813 0.0264583,0.0108004 0.022841,0.00496094 0.0224276,0.0106453 0.00356567,0.0200505 -0.0103353,0.0214457 -0.019637,0.0144177 -0.0571541,0.0180868 0.0028422,0.0045992 0.0480591,0.056689 0.0871265,0.0718302 0.0879533,0.0529167 0.0218591,0.00800985 0.0220658,0.00289388 0.0181901,-0.00408244 0.0340031,-0.00129191 0.0162264,-0.00403076 0.0736906,-0.0304891 0.042478,-0.0241329 0.0697632,-0.0749825 0.0413411,-0.0314193 0.0199988,-0.00676961 0.0181384,-0.00015503 0.0374137,0.00408244 0.0395841,-0.00341065 0.0174666,0.000775146 0.0234611,0.00671794 0.00594279,-0.0026355 0,-0.0109554 -0.00258382,-0.0198954 0.00397908,-0.00800985 0.00330729,-0.00480591 0.00594279,-0.00304891 0.0118339,-0.00248047 0.0235645,0.00335897 0.0156063,0.0148311 0.0128158,0.0195337 0.0151929,0.0172599 0.0216007,0.0110071 0.0170532,-0.00180868 0.0383956,-0.0189653 0.0259932,-0.00361735 0.0191203,0.00852661 0.0151929,0.0179834 0.0146244,0.024753 0.0147278,0.0101286 0.0203605,-0.00248047 0.042168,-0.0117306 0.0190169,0.00124023 0.0767912,0.0171049 0.09679,0.00976685 0.0610299,-0.00227376 0.0686263,-0.0135909 0.0281637,0.00160197 0.0626835,0.0227376 0.0218075,0.0045992 0.202572,-0.00129191 0.123442,-0.000817211 0.0248693,-0.00016464 0.168052,-0.00113688 0.0567407,-0.0110071 0.162574,-0.0908988 0.045682,-0.0144694 0.211925,-0.020929 0.248512,-0.024443 0.189136,-0.0186552 0.242673,-0.0239262 0.165261,0.0219108 0.222209,0.0294039 0.0371037,-0.0206189 0.0645955,-0.0862996 0.0740007,-0.0989087 0.0845426,-0.112706 0.0126607,-0.00775146 0.0140238,-0.000581633 0.131755,-0.00546451 0.0325562,0.0043925 0.0295589,0.0114722 0.12268,0.068988 0.113998,0.0639237 0.00099368,0.00127759 0.0293921,0.0377898 0.0668693,0.176682 0.0472839,0.124747 0.0168982,0.0309542 0.097255,0.116375 0.149242,0.178542 0.158078,0.189394 0.0907955,0.108314 0.0775663,0.0930176 0.0224792,0.015012 0.128158,0.0626577 0.171772,0.0838192 0.191616,0.0936119 0.171566,0.08369 0.143764,0.0701766 0.0445451,0.0218333 0.0929659,0.0323753 0.129036,0.017415 0.160197,0.0215491 0.160197,0.0215491 0.160197,0.0215491 0.160094,0.0215491 0.160197,0.0215491 0.160197,0.0216007 0.160197,0.0214974 0.160197,0.0215491 0.160042,0.0216266 0.160352,0.0214974 0.160094,0.0215491 0.160094,0.0215749 0.160197,0.0215491 0.160197,0.0215491 0.160197,0.0215749 0.160197,0.0215491 0.157923,0.0212649 0.0070738,-0.0159057 0.0282729,-0.0635726 0.0427881,-0.0965316 0.0427881,-0.0965833 0.0427881,-0.0965316 0.0426847,-0.0965833 0.0427881,-0.0965057 0.0428914,-0.0965574 0.0426331,-0.0965833 0.0428398,-0.0965057 0.0428398,-0.0965057 0.0427364,-0.0966349 0.0427881,-0.0964799 0.0428914,-0.0965316 0.0427881,-0.0965316 0.0426331,-0.0965316 0.0427881,-0.0965833 0.0427881,-0.0965316 0.0317293,-0.0715719 -0.00186035,-0.000516765 -0.005271,-0.000671793 -0.00155029,-0.000516764 0.0147795,-0.0089917 0.0376204,-0.00206706 0.0171566,-0.00589111 0.010542,-0.0137976 0.0387573,-0.0837158 0.0624251,-0.135444 z M 11.028,0.592328 l 0.0324362,-0.00378699 0.0237362,0.0023191 0.0248203,0.00245392 0.0392546,-0.0349794 0.0688845,-0.0500754 0.0451714,-0.0117071 0.0380386,-0.00939121 0.0202972,0.0243282 0.00959437,0.0243606 0.0273955,0.00573772 0.0190356,-0.00237609 0.017757,-0.00822924 0.0333578,0.00456219 0.0345552,-0.00124423 0.0370348,0.0208115 0.0131272,0.00460747 0.0239077,0.0150373 0.010862,0.012679 0.0263672,0.00223796 0.0128508,-0.0127513 0.0142645,-0.0105054 0.0213798,-0.0128657 0.0155696,0.00344927 0.0120312,0.00695608 0.0050402,-0.00239973 0.0101725,-0.0113118 0.00805664,-0.0090332 0.0185547,-0.000610352 0.0227051,-0.0045166 0.00932052,-0.0154092 0.0155133,-0.00587068 0.0346137,-0.0152548 0.0406767,-0.00830517 0.0406303,-0.0222847 0.0211343,-0.00637606 0.0487529,-0.0304622 0.0262704,0.0033483 0.0191599,0.0115201 0.0107407,-0.00122013 0.0134607,-0.00697557 -0.012367,-0.0127922 -0.0298884,-0.0079745 -0.0215143,-0.00685845 -0.0191014,-0.00338475 -0.0107689,-0.00807881 -0.00197024,-0.0264286 -0.0423433,-0.0174968 -0.0336792,-0.00765559 -0.0404922,-0.016112 -0.0448323,0.00383432 -0.0373949,-0.0137518 -0.00846354,-0.00834147 -0.0187174,-0.0257975 -0.0090332,-0.00561523 -0.0258789,-0.0112712 -0.02889,-0.0227051 -0.0144606,-0.00846436 -0.0297865,0.00246633 -0.046482,-0.00326301 -0.0166829,0.00241443 -0.0166605,-0.00460124 -0.022642,-0.0185037 -0.0223121,0.0072872 -0.000244141,0 -0.0157064,0.00472005 -0.0307005,-0.00710727 -0.0428099,-0.00684888 -0.120119,-0.0229396 -0.0451872,-0.00455495 -0.0582407,0.00592827 -0.0546591,0.0163644 -0.0461183,0.0119078 -0.0201465,0.0197691 -0.0160195,0.0193821 -0.0164388,0.0197754 -0.013916,0.0227865 -0.0262512,0.00884299 -0.0414995,0.0267861 -0.103636,0.0635734 -0.0244954,0.0221354 -0.00284831,0.0057373 0.00878906,0.00687663 0.0268093,-0.00767001 0.0205085,0.00230381 0.0215299,0.0124056 0.00488281,0.00345866 0.00170898,0.00887044 0.00846354,0.0179443 0.00358073,0.0104574 -0.00714107,0.0584185 0.0147106,0.00566798 0.0172867,0.00325428 0.0420527,0.00603387 0.00950088,0.0151112 0.0107487,0.0150855 0.00954254,0.0104439 0.0190766,0.00228616 0.0548163,-0.0105787 z M 9.63313,0.1025 l 0.0215573,-0.00750059 0.0163701,0.000891724 0.0293108,-0.00496389 0.0430842,-0.00155564 0.0301751,-0.0125514 0.0553113,0.0123246 0.0148112,-0.00333659 8.138e-005,0 0.00512695,-0.00992839 -0.0132224,-0.00477809 -0.0103531,-0.0109799 0.00781093,-0.00587397 0.00952357,-0.0168235 -0.0284826,0.00498608 -0.0120769,-0.00255751 -0.0173271,-0.00511079 -0.0458984,0.00830078 -0.0444485,0.00239093 -0.00519601,0.00840579 -0.0106582,0.0150415 -0.00626628,0.000284831 -0.00634766,0.000284831 -0.0210775,-0.00626628 -0.0108236,-0.00179036 -0.00406901,0.00349935 -0.0112305,0.0161947 -0.00219726,0.00488281 -0.00537109,-0.00118001 -0.0203015,0.00830611 -0.0129386,-0.00256227 -0.0114376,-0.00334312 -0.00651042,0.00516764 -0.00398763,0.00321452 -0.0333306,0.0149906 -0.00436823,0.0134654 0.0146445,0.00426349 0.0153232,0.00202987 0.0243485,-0.000217873 0.0293426,-0.00665107 0.031099,-0.0209543 z M 0.242839,1.81526 l -0.00683594,-0.00671387 -0.0276693,0.000732422 0.0135091,0.0279134 0,4.069e-005 -0.0209961,0.00785319 -0.0250651,0.0128581 -0.0090332,0.00805664 -0.0118001,0.010498 -0.00146484,0.00431315 -0.00732422,0.0209147 0.00895182,0.015096 0.0201823,0.0177002 0.0229492,0.0141602 0.016276,0.00455729 0.00732422,0.00683594 0.0281576,-0.0343424 0.00602214,-0.0140381 -0.00016276,-0.0108643 -0.0135091,-0.0369466 -0.00146484,-0.0312907 0,-4.0691e-005 0.00195312,-0.0172933 z M 0.0358073,3.28014 l 0.0109863,-0.00211589 0.0131022,0.00354004 0.0128581,0.00708008 0.00968425,-0.00142415 -8.138e-005,-0.012207 -0.0118815,-0.0383708 -0.00276693,-0.013387 0.00203451,-0.00834147 -0.00219727,-0.0078125 -0.00488281,-0.0045166 0.000976563,-0.00183106 0.00585937,0.00183106 -0.00113932,-0.00598145 -0.0201823,-0.0293376 -0.0117188,-0.010498 -0.0138346,0.000651042 -0.0109863,0.00870768 -0.0116374,0.0168457 0.00016276,0.0225423 0.0102539,0.0244954 0.00276693,0.0515137 0.0120443,0.0171305 0.0127767,0.0126953 0.00968424,0.00793457 0.00406901,0.00842285 0.00439453,0.00712077 0.0219727,0.0110677 0.00716146,-0.00309245 0.00496419,-0.00870768 -0.0256348,-0.016154 -0.00317383,-0.00646973 0.00431315,-0.0016276 0.000488282,-0.00472005 -0.00390625,-0.0061849 -0.00911458,-0.00675456 -0.0142415,-0.0069987 -0.00317383,-0.00504557 z M 0.142822,1.55236 l -8.1381e-005,-4.069e-005 -0.00219727,0.012207 -0.000488281,0.0024821 0,8.138e-005 0.00773112,0.0206706 0.0257161,0.0434163 0.0424805,0.029541 0.0208333,0.00777181 0.0123698,-0.0100098 -0.00309245,-0.0192057 -0.0303548,-0.0314128 -0.0074056,-0.021403 -0.0101725,-0.00948079 -0.0553385,-0.0246175 z M 10.4928,0.068889 l 0.0145182,-0.00541286 0.0152976,2.0162e-005 0.0145521,-0.0101456 0.0041561,-0.0162396 -0.000695436,-0.0142104 -0.0145497,-0.00406148 -0.0152391,-0.00203177 -0.0298152,0.0114905 -0.0200712,0.0169026 -0.0214382,0.00608303 0.00345495,0.00947038 0.0152332,0.00474461 0.0130972,-0.00136591 0.0104093,0.00407134 0.0110901,0.000685052 z M 0.903239,0.541537 l -0.00154622,-0.0143229 -0.0116374,-0.00651042 -0.00691732,0.00252279 -0.0117188,0.0120443 -0.005778,0.00594076 -0.0116374,-0.00280762 -0.0069987,0.00321452 -0.00260417,0.013265 0.00748698,0.00447591 0.00878906,0.00223796 0.0225423,0.000732422 0.013265,-0.00655111 0.0016276,-0.00341797 0.00512695,-0.0108236 z M 10.7625,0.00695087 l 0.00202785,-0.00695087 -0.0327722,0.00238542 -0.0144196,0.0010403 -0.0147494,0.00643306 0.019745,0.00752911 0.0188127,-0.00149422 0.0111826,-0.00546425 0.010173,-0.00347855 z "/>
</g></g></svg>